<svg width="51" height="51" viewBox="0 0 51 51" fill="none" xmlns="http://www.w3.org/2000/svg">
<path d="M4.25 23.5514C4.24994 22.1847 4.57942 20.8382 5.2105 19.6259C5.84159 18.4137 6.75567 17.3715 7.87525 16.5877L20.6253 7.66273C22.054 6.66249 23.7559 6.12598 25.5 6.12598C27.2441 6.12598 28.946 6.66249 30.3747 7.66273L43.1248 16.5877C44.2443 17.3715 45.1584 18.4137 45.7895 19.6259C46.4206 20.8382 46.7501 22.1847 46.75 23.5514V40.375C46.75 41.5021 46.3022 42.5832 45.5052 43.3802C44.7082 44.1772 43.6272 44.625 42.5 44.625H8.5C7.37283 44.625 6.29183 44.1772 5.4948 43.3802C4.69777 42.5832 4.25 41.5021 4.25 40.375V23.5514Z" stroke="#4F82EC" stroke-width="2" stroke-linecap="round" stroke-linejoin="round"/>
<path d="M5.3125 20.1875L20.1896 31.8771C21.6969 33.0831 23.5697 33.7401 25.5 33.7401C27.4303 33.7401 29.3031 33.0831 30.8104 31.8771L45.6875 20.1875" stroke="#4F82EC" stroke-width="2" stroke-linejoin="round"/>
</svg>
