<svg width="69" height="45" viewBox="0 0 69 45" fill="none" xmlns="http://www.w3.org/2000/svg">
<path d="M10.4553 43.1963C10.5117 43.8353 11.0206 44.6456 11.9025 44.6456H12.4192C12.6193 44.6456 12.7824 44.482 12.7824 44.2814V32.9028H12.7804C12.7707 32.7119 12.6115 32.558 12.4192 32.558H10.8185C10.6244 32.558 10.467 32.7119 10.4573 32.9028H10.4553V33.8281C9.47439 32.6165 7.93012 32.1157 6.38003 32.1157C2.8564 32.1138 0.000976562 34.9775 0.000976562 38.5093C0.000976562 42.0431 2.8564 44.9067 6.38003 44.9067C7.92817 44.9067 9.61816 44.3047 10.4553 43.1963ZM6.38586 42.6684C4.1462 42.6684 2.32999 40.806 2.32999 38.5093C2.32999 36.2125 4.1462 34.3521 6.38586 34.3521C8.62552 34.3521 10.4417 36.2145 10.4417 38.5093C10.4417 40.806 8.62552 42.6684 6.38586 42.6684Z" fill="#0D0E10"/>
<path d="M36.5193 43.1963C36.5756 43.8353 37.0845 44.6456 37.9664 44.6456H38.4831C38.6832 44.6456 38.8464 44.482 38.8464 44.2814V32.9028H38.8445C38.8348 32.7119 38.6754 32.558 38.4831 32.558H36.8826C36.6883 32.558 36.5309 32.7119 36.5193 32.9028V33.8281C35.5383 32.6164 33.9941 32.1157 32.444 32.1157C28.9224 32.1157 26.0649 34.9794 26.0649 38.5132C26.0649 42.0469 28.9204 44.9105 32.444 44.9105C33.9941 44.9066 35.684 44.3047 36.5193 43.1963ZM32.4518 42.6684C30.2121 42.6684 28.3959 40.806 28.3959 38.5093C28.3959 36.2125 30.2121 34.3521 32.4518 34.3521C34.6914 34.3521 36.5076 36.2145 36.5076 38.5093C36.5076 40.806 34.6914 42.6684 32.4518 42.6684Z" fill="#0D0E10"/>
<path d="M65.6584 43.1963C65.7147 43.8353 66.2237 44.6456 67.1056 44.6456H67.6222C67.8223 44.6456 67.9875 44.482 67.9875 44.2814V32.9028H67.9855C67.9758 32.7119 67.8165 32.558 67.6242 32.558H66.0236C65.8294 32.558 65.672 32.7119 65.6623 32.9028H65.6603V33.8281C64.6794 32.6164 63.1352 32.1157 61.5851 32.1157C58.0615 32.1157 55.2061 34.9794 55.2061 38.5132C55.2061 42.0469 58.0615 44.9105 61.5851 44.9105C63.1333 44.9066 64.8212 44.3047 65.6584 43.1963ZM61.589 42.6684C59.3493 42.6684 57.5331 40.806 57.5331 38.5093C57.5331 36.2125 59.3493 34.3521 61.589 34.3521C63.8286 34.3521 65.6448 36.2145 65.6448 38.5093C65.6467 40.806 63.8306 42.6684 61.589 42.6684Z" fill="#0D0E10"/>
<path d="M53.1818 43.586V37.697C53.1818 34.3775 51.0936 32.1392 47.7642 32.1392C46.1753 32.1392 44.7204 33.0528 44.4116 33.8534C44.3125 33.234 43.9841 32.5833 42.9683 32.5833H42.4497C42.2496 32.5833 42.0864 32.747 42.0864 32.9496V43.2236V43.2255V44.3086V44.3282H42.0883C42.098 44.5191 42.2573 44.673 42.4497 44.673H43.5335H44.0502C44.0755 44.673 44.0988 44.671 44.1221 44.6652C44.1318 44.6632 44.1435 44.6593 44.1532 44.6554C44.1648 44.6515 44.1765 44.6495 44.1881 44.6437C44.2017 44.6379 44.2153 44.6301 44.2289 44.6222C44.2348 44.6184 44.2425 44.6145 44.2484 44.6106C44.2639 44.6009 44.2795 44.5873 44.2931 44.5755C44.295 44.5736 44.2989 44.5716 44.3008 44.5697C44.3164 44.5541 44.3319 44.5366 44.3436 44.5191C44.3844 44.4645 44.4077 44.3983 44.4116 44.3262H44.4135V44.3067V43.584V43.395V37.6054C44.4135 35.823 45.8548 34.3775 47.6321 34.3775C49.4095 34.3775 50.8508 35.823 50.8508 37.6054L50.8528 43.2236V43.2216C50.8528 43.2275 50.8528 43.2313 50.8528 43.2373V44.3067V44.3262H50.8547C50.8644 44.5171 51.0237 44.671 51.216 44.671H52.2999H52.8166C52.8419 44.671 52.8652 44.6691 52.8884 44.6632C52.8981 44.6613 52.9059 44.6573 52.9156 44.6554C52.9292 44.6515 52.9428 44.6476 52.9544 44.6437C52.968 44.6379 52.9797 44.6301 52.9914 44.6243C52.9991 44.6203 53.0069 44.6164 53.0147 44.6125C53.0302 44.6028 53.0438 44.5912 53.0555 44.5794C53.0594 44.5755 53.0632 44.5736 53.0652 44.5716C53.0807 44.5561 53.0943 44.5404 53.106 44.5249C53.106 44.523 53.1079 44.523 53.1079 44.521C53.1468 44.4664 53.1721 44.4003 53.1759 44.3301H53.1779V44.3106L53.1818 43.586Z" fill="#0D0E10"/>
<path d="M16.6051 41.5657C17.6735 42.308 18.839 42.6683 19.9598 42.6683C21.0262 42.6683 22.1295 42.1131 22.1295 41.1469C22.1295 39.8573 19.7248 39.6566 18.2155 39.1423C16.7042 38.628 15.4028 37.5625 15.4028 35.8404C15.4028 33.2028 17.7454 32.1138 19.9326 32.1138C21.3176 32.1138 22.7472 32.5716 23.6757 33.228C23.9943 33.4716 23.8001 33.7501 23.8001 33.7501L22.9143 35.0183C22.8152 35.1605 22.6404 35.2852 22.3918 35.1293C22.1412 34.9755 21.2671 34.354 19.9326 34.354C18.5981 34.354 17.794 34.9716 17.794 35.7371C17.794 36.6566 18.839 36.945 20.0627 37.2586C22.1956 37.8352 24.5207 38.5287 24.5207 41.1489C24.5207 43.4729 22.3529 44.9086 19.9579 44.9086C18.1416 44.9086 16.5974 44.3904 15.3018 43.4359C15.0318 43.165 15.2202 42.9138 15.2202 42.9138L16.1001 41.6534C16.2808 41.4157 16.5061 41.4975 16.6051 41.5657Z" fill="#0D0E10"/>
<path d="M39.6018 5.61428C39.6018 8.71364 37.096 11.2285 34.0056 11.2285C30.9132 11.2285 28.4074 8.71558 28.4074 5.61428C28.4074 2.51299 30.9132 0 34.0056 0C37.096 0 39.6018 2.51299 39.6018 5.61428ZM26.7329 12.6312C23.6426 12.6312 21.1348 15.1442 21.1348 18.2435C21.1348 21.3428 23.6406 23.8578 26.7329 23.8578C29.8254 23.8578 32.3312 21.3448 32.3312 18.2435C32.3312 15.1442 29.8254 12.6312 26.7329 12.6312ZM41.2762 12.6312C38.1838 12.6312 35.678 15.1442 35.678 18.2455C35.678 21.3467 38.1838 23.8597 41.2762 23.8597C44.3667 23.8597 46.8744 21.3467 46.8744 18.2455C46.8744 15.1442 44.3686 12.6312 41.2762 12.6312Z" fill="#F06A6A"/>
</svg>
