<?xml version="1.0" encoding="utf-8"?>
<!-- Generator: Adobe Illustrator 17.0.0, SVG Export Plug-In . SVG Version: 6.00 Build 0)  -->
<!DOCTYPE svg PUBLIC "-//W3C//DTD SVG 1.1//EN" "http://www.w3.org/Graphics/SVG/1.1/DTD/svg11.dtd">
<svg version="1.1" id="Layer_1" xmlns="http://www.w3.org/2000/svg" xmlns:xlink="http://www.w3.org/1999/xlink" x="0px" y="0px"
	 width="12px" height="12px" viewBox="4 4 12 12" enable-background="new 4 4 12 12" xml:space="preserve">
<path fill="#FFFFFF" d="M4,10c0-3.314,2.686-6,6-6s6,2.686,6,6s-2.686,6-6,6S4,13.314,4,10z M13.792,7.06l-6.738,6.726
	c2.093,1.626,5.109,1.248,6.735-0.845c1.345-1.731,1.346-4.154,0.003-5.887V7.06z M12.946,6.208
	c-2.088-1.633-5.105-1.264-6.738,0.824c-1.359,1.737-1.359,4.177,0,5.914C6.208,12.946,12.946,6.208,12.946,6.208z"/>
</svg>
