<?xml version="1.0" encoding="utf-8"?>
<!-- Generator: Adobe Illustrator 17.0.0, SVG Export Plug-In . SVG Version: 6.00 Build 0)  -->
<!DOCTYPE svg PUBLIC "-//W3C//DTD SVG 1.1//EN" "http://www.w3.org/Graphics/SVG/1.1/DTD/svg11.dtd">
<svg version="1.1" id="Layer_1" xmlns="http://www.w3.org/2000/svg" xmlns:xlink="http://www.w3.org/1999/xlink" x="0px" y="0px"
	 width="12px" height="11.731px" viewBox="2.695 2.635 12 11.731" enable-background="new 2.695 2.635 12 11.731"
	 xml:space="preserve">
<path fill="#DCB526" d="M14.694,11.453c0,1.609-1.304,2.913-2.913,2.913H5.608c-1.609,0-2.913-1.304-2.913-2.913V5.547
	c0-1.609,1.304-2.913,2.913-2.913h6.175c1.609,0,2.913,1.304,2.913,2.913L14.694,11.453L14.694,11.453z"/>
<path fill="none" stroke="#FFFFFF" stroke-miterlimit="10" d="M11.78,10.018c0,0.827-0.671,1.497-1.497,1.497H7.107
	c-0.827,0-1.497-0.671-1.497-1.497V6.982c0-0.827,0.671-1.497,1.497-1.497h3.175c0.827,0,1.497,0.671,1.497,1.497V10.018z"/>
</svg>
