<?xml version="1.0" encoding="utf-8"?>
<!-- Generator: Adobe Illustrator 17.0.0, SVG Export Plug-In . SVG Version: 6.00 Build 0)  -->
<!DOCTYPE svg PUBLIC "-//W3C//DTD SVG 1.1//EN" "http://www.w3.org/Graphics/SVG/1.1/DTD/svg11.dtd">
<svg version="1.1" id="Layer_1" xmlns="http://www.w3.org/2000/svg" xmlns:xlink="http://www.w3.org/1999/xlink" x="0px" y="0px"
	 width="152.034px" height="37.614px" viewBox="206.141 84.693 152.034 37.614"
	 enable-background="new 206.141 84.693 152.034 37.614" xml:space="preserve">
<g>
	<path fill="#FFFFFF" d="M215.999,85.703c5.495,0,8.727,3.232,8.727,7.717c0,3.03-1.778,5.293-4.242,6.182
		c3.03,0.808,5.131,3.434,5.131,6.828c0,4.606-3.555,7.919-8.889,7.919h-10.585V85.703H215.999z M215.353,97.824
		c2.828,0,4.525-1.616,4.525-4c0-2.424-1.697-4-4.646-4h-4.283v7.999H215.353z M215.878,110.227c2.909,0,4.808-1.576,4.808-4.121
		c0-2.465-1.656-4.202-4.646-4.202h-5.091v8.323H215.878z"/>
	<path fill="#FFFFFF" d="M236.968,114.914c-4.687,0-7.434-3.474-7.434-7.838V94.672h4.686v11.555c0,2.424,1.131,4.484,3.959,4.484
		c2.707,0,4.121-1.818,4.121-4.404V94.672h4.687v16.08c0,1.616,0.121,2.869,0.202,3.596h-4.485
		c-0.081-0.444-0.162-1.374-0.162-2.182C241.574,113.944,239.271,114.914,236.968,114.914z"/>
	<path fill="#FFFFFF" d="M254.018,122.307l4.727-10.302l-8.404-17.332h5.293l5.656,12.444l5.293-12.444h4.97l-12.525,27.635H254.018
		z"/>
	<path fill="#FFFFFF" d="M294.379,114.348l-14.14-21.696v21.696h-4.848V85.703h6.182l13.009,20.322V85.703h4.848v28.645H294.379
		L294.379,114.348z"/>
	<path fill="#FFFFFF" d="M324.722,104.49c0,6.06-4.323,10.464-10.222,10.464c-5.858,0-10.181-4.404-10.181-10.464
		c0-6.02,4.323-10.424,10.181-10.424C320.399,94.066,324.722,98.47,324.722,104.49z M319.995,104.49
		c0-4.081-2.586-6.182-5.495-6.182c-2.868,0-5.495,2.101-5.495,6.182c0,4.081,2.626,6.262,5.495,6.262
		C317.409,110.752,319.995,108.611,319.995,104.49z"/>
	<path fill="#FFFFFF" d="M331.55,84.693c1.697,0,3.071,1.374,3.071,3.071s-1.374,3.03-3.071,3.03c-1.656,0-3.03-1.333-3.03-3.03
		S329.893,84.693,331.55,84.693z M329.247,114.348V94.672h4.646v19.676H329.247L329.247,114.348z"/>
	<path fill="#FFFFFF" d="M351.468,99.318c-0.525-0.081-1.05-0.121-1.535-0.121c-3.636,0-5.293,2.101-5.293,5.778v9.373h-4.686
		V94.672h4.565v3.151c0.929-2.141,3.111-3.394,5.697-3.394c0.566,0,1.05,0.081,1.252,0.121L351.468,99.318L351.468,99.318z"/>
</g>
<g>
	<path fill="#FAE3DA" d="M354.863,108.005c1.818,0,3.313,1.495,3.313,3.313s-1.495,3.273-3.313,3.273s-3.273-1.454-3.273-3.273
		S353.044,108.005,354.863,108.005z"/>
</g>
</svg>
