<?xml version="1.0" encoding="utf-8"?>
<!-- Generator: Adobe Illustrator 17.0.0, SVG Export Plug-In . SVG Version: 6.00 Build 0)  -->
<!DOCTYPE svg PUBLIC "-//W3C//DTD SVG 1.1//EN" "http://www.w3.org/Graphics/SVG/1.1/DTD/svg11.dtd">
<svg version="1.1" id="Layer_1" xmlns="http://www.w3.org/2000/svg" xmlns:xlink="http://www.w3.org/1999/xlink" x="0px" y="0px"
	 width="16px" height="16px" viewBox="216 248 16 16" enable-background="new 216 248 16 16" xml:space="preserve">
<path fill="#5083EC" d="M230.286,264h-12.571c-0.947,0-1.714-0.767-1.714-1.714v-12.571c0-0.947,0.768-1.714,1.714-1.714h12.571
	c0.947,0,1.714,0.768,1.714,1.714v12.571C232,263.233,231.232,264,230.286,264z M222.975,260.498l6.571-6.571
	c0.223-0.223,0.223-0.585,0-0.808l-0.808-0.808c-0.223-0.223-0.585-0.223-0.808,0l-5.359,5.359l-2.502-2.502
	c-0.223-0.223-0.585-0.223-0.808,0l-0.808,0.808c-0.223,0.223-0.223,0.585,0,0.808l3.714,3.714
	C222.391,260.721,222.752,260.721,222.975,260.498L222.975,260.498z"/>
</svg>
