<?xml version="1.0" encoding="utf-8"?>
<!-- Generator: Adobe Illustrator 17.0.0, SVG Export Plug-In . SVG Version: 6.00 Build 0)  -->
<!DOCTYPE svg PUBLIC "-//W3C//DTD SVG 1.1//EN" "http://www.w3.org/Graphics/SVG/1.1/DTD/svg11.dtd">
<svg version="1.1" id="Layer_1" xmlns="http://www.w3.org/2000/svg" xmlns:xlink="http://www.w3.org/1999/xlink" x="0px" y="0px"
	 width="200px" height="31.179px" viewBox="32.806 5.114 200 31.179" enable-background="new 32.806 5.114 200 31.179"
	 xml:space="preserve">
<g>
	<g>
		<path d="M81.981,22.08c-0.117,1.613-0.712,2.882-1.786,3.809c-1.075,0.927-2.49,1.39-4.247,1.39c-1.922,0-3.434-0.647-4.534-1.94
			s-1.652-3.069-1.652-5.327v-0.916c0-1.441,0.254-2.711,0.762-3.809c0.508-1.098,1.234-1.94,2.178-2.527
			c0.943-0.587,2.04-0.88,3.289-0.88c1.73,0,3.123,0.463,4.18,1.39c1.057,0.927,1.668,2.227,1.833,3.902h-3.089
			c-0.076-0.968-0.345-1.669-0.808-2.105c-0.463-0.436-1.169-0.654-2.116-0.654c-1.029,0-1.8,0.369-2.311,1.107
			c-0.511,0.738-0.773,1.882-0.788,3.434v1.132c0,1.62,0.245,2.804,0.736,3.552s1.265,1.122,2.321,1.122
			c0.954,0,1.666-0.218,2.136-0.654c0.47-0.436,0.739-1.111,0.808-2.023h3.087V22.08z"/>
		<path d="M87.292,27.073h-3.088v-14.99h3.089L87.292,27.073L87.292,27.073z"/>
		<path d="M95.703,21.586h-2.461v5.487h-3.089v-14.99h5.569c1.771,0,3.136,0.395,4.097,1.184s1.441,1.904,1.441,3.345
			c0,1.023-0.221,1.875-0.664,2.558c-0.443,0.683-1.114,1.227-2.013,1.632l3.243,6.125v0.144h-3.315L95.703,21.586z M93.243,19.084
			h2.492c0.776,0,1.376-0.197,1.802-0.592c0.426-0.395,0.639-0.938,0.639-1.632c0-0.706-0.201-1.263-0.602-1.668
			c-0.401-0.405-1.018-0.608-1.848-0.608h-2.481L93.243,19.084L93.243,19.084z"/>
		<path d="M115.376,22.08c-0.117,1.613-0.712,2.882-1.786,3.809c-1.075,0.927-2.49,1.39-4.247,1.39c-1.922,0-3.434-0.647-4.534-1.94
			c-1.101-1.294-1.652-3.069-1.652-5.327v-0.916c0-1.441,0.254-2.711,0.762-3.809c0.508-1.098,1.234-1.94,2.178-2.527
			c0.943-0.587,2.04-0.88,3.289-0.88c1.73,0,3.123,0.463,4.18,1.39c1.057,0.927,1.668,2.227,1.833,3.902h-3.089
			c-0.076-0.968-0.345-1.669-0.808-2.105c-0.463-0.436-1.169-0.654-2.116-0.654c-1.029,0-1.8,0.369-2.311,1.107
			c-0.511,0.738-0.773,1.882-0.788,3.434v1.132c0,1.62,0.245,2.804,0.736,3.552c0.491,0.748,1.265,1.122,2.321,1.122
			c0.954,0,1.666-0.218,2.136-0.654c0.47-0.436,0.739-1.111,0.808-2.023h3.087V22.08z"/>
		<path d="M120.493,24.592h6.558v2.481h-9.646v-14.99h3.089V24.592z"/>
		<path d="M137.839,20.577h-5.93v4.015h6.959v2.481H128.82v-14.99h10.027v2.501h-6.939v3.572h5.93L137.839,20.577L137.839,20.577z"
			/>
		<path d="M148.453,23.14c0-0.583-0.206-1.031-0.617-1.343c-0.412-0.312-1.153-0.642-2.224-0.989
			c-1.071-0.346-1.919-0.688-2.543-1.024c-1.702-0.92-2.553-2.158-2.553-3.717c0-0.809,0.228-1.532,0.684-2.167
			c0.456-0.635,1.112-1.13,1.966-1.488c0.855-0.357,1.813-0.535,2.877-0.535c1.071,0,2.024,0.194,2.862,0.581
			c0.837,0.388,1.488,0.935,1.951,1.642s0.695,1.51,0.695,2.409h-3.088c0-0.686-0.216-1.22-0.648-1.601
			c-0.432-0.381-1.04-0.572-1.822-0.572c-0.755,0-1.342,0.16-1.76,0.479c-0.419,0.319-0.628,0.739-0.628,1.261
			c0,0.487,0.245,0.895,0.736,1.225c0.491,0.33,1.213,0.639,2.167,0.926c1.757,0.529,3.037,1.184,3.84,1.966
			c0.803,0.782,1.205,1.757,1.205,2.924c0,1.297-0.49,2.315-1.472,3.053c-0.982,0.738-2.303,1.107-3.964,1.107
			c-1.153,0-2.203-0.211-3.15-0.633c-0.947-0.422-1.669-1-2.167-1.735c-0.498-0.735-0.746-1.585-0.746-2.553h3.099
			c0,1.654,0.989,2.481,2.965,2.481c0.735,0,1.307-0.149,1.719-0.448C148.248,24.09,148.453,23.675,148.453,23.14z"/>
		<path d="M165.933,19.918c0,1.4-0.227,2.617-0.679,3.65c-0.453,1.033-1.081,1.862-1.884,2.486l2.492,1.956l-1.966,1.74
			l-3.191-2.563c-0.364,0.062-0.741,0.093-1.132,0.093c-1.242,0-2.351-0.298-3.325-0.895c-0.974-0.597-1.73-1.45-2.265-2.558
			c-0.535-1.108-0.806-2.383-0.813-3.824v-0.741c0-1.476,0.267-2.775,0.798-3.897c0.532-1.122,1.283-1.983,2.254-2.584
			c0.971-0.6,2.081-0.901,3.33-0.901c1.249,0,2.359,0.3,3.33,0.901c0.971,0.601,1.723,1.462,2.254,2.584
			c0.532,1.123,0.798,2.418,0.798,3.886v0.667H165.933z M162.804,19.238c0-1.571-0.282-2.766-0.844-3.583
			c-0.562-0.816-1.365-1.225-2.409-1.225c-1.036,0-1.836,0.404-2.399,1.209c-0.562,0.806-0.848,1.989-0.855,3.547v0.731
			c0,1.53,0.282,2.717,0.844,3.562c0.562,0.844,1.373,1.267,2.43,1.267c1.036,0,1.833-0.407,2.388-1.22
			c0.556-0.813,0.837-1.998,0.844-3.557V19.238z"/>
		<path d="M179.543,12.083v9.872c0,1.641-0.514,2.937-1.539,3.891c-1.026,0.954-2.428,1.431-4.205,1.431
			c-1.75,0-3.14-0.463-4.169-1.39s-1.554-2.199-1.575-3.819v-9.985h3.089v9.893c0,0.982,0.236,1.697,0.706,2.147
			s1.12,0.675,1.951,0.675c1.736,0,2.619-0.913,2.646-2.739v-9.976H179.543z"/>
		<path d="M190.311,23.984h-5.415l-1.029,3.089h-3.284l5.58-14.989h2.862l5.61,14.989h-3.284L190.311,23.984z M185.73,21.483h3.748
			l-1.884-5.61L185.73,21.483z"/>
		<path d="M201.583,21.586h-2.461v5.487h-3.089v-14.99h5.569c1.771,0,3.136,0.395,4.097,1.184s1.441,1.904,1.441,3.345
			c0,1.023-0.221,1.875-0.664,2.558s-1.114,1.227-2.013,1.632l3.243,6.125v0.144h-3.315L201.583,21.586z M199.123,19.084h2.492
			c0.776,0,1.376-0.197,1.802-0.592c0.426-0.395,0.639-0.938,0.639-1.632c0-0.706-0.201-1.263-0.602-1.668
			c-0.401-0.405-1.018-0.608-1.848-0.608h-2.481L199.123,19.084L199.123,19.084z"/>
		<path d="M218.508,20.577h-5.93v4.015h6.959v2.481h-10.048v-14.99h10.027v2.501h-6.939v3.572h5.93L218.508,20.577L218.508,20.577z"
			/>
		<path d="M221.349,27.073v-14.99h4.612c1.318,0,2.496,0.297,3.536,0.891c1.04,0.594,1.852,1.438,2.434,2.532
			c0.583,1.095,0.875,2.338,0.875,3.732v0.69c0,1.394-0.287,2.632-0.86,3.717c-0.573,1.085-1.381,1.925-2.425,2.522
			c-1.044,0.597-2.22,0.899-3.531,0.906H221.349z M224.437,14.585v10.006h1.492c1.208,0,2.131-0.395,2.769-1.184
			c0.639-0.789,0.964-1.919,0.978-3.387v-0.793c0-1.523-0.316-2.678-0.947-3.464c-0.632-0.785-1.554-1.178-2.769-1.178
			C225.961,14.585,224.437,14.585,224.437,14.585z"/>
	</g>
	<path d="M50.95,9.632v13.565H37.324V9.632H50.95 M55.468,5.114H32.806v22.601h22.662V5.114L55.468,5.114z"/>
	<path d="M52.545,17.534c4.134,0,7.497,3.364,7.497,7.497s-3.364,7.497-7.497,7.497s-7.497-3.364-7.497-7.497
		S48.41,17.534,52.545,17.534 M52.545,13.769c-6.22,0-11.262,5.042-11.262,11.262s5.042,11.262,11.262,11.262
		c6.22,0,11.262-5.042,11.262-11.262S58.764,13.769,52.545,13.769L52.545,13.769z"/>
</g>
</svg>
