<?xml version="1.0" encoding="utf-8"?>
<!-- Generator: Adobe Illustrator 17.0.0, SVG Export Plug-In . SVG Version: 6.00 Build 0)  -->
<!DOCTYPE svg PUBLIC "-//W3C//DTD SVG 1.1//EN" "http://www.w3.org/Graphics/SVG/1.1/DTD/svg11.dtd">
<svg version="1.1" id="Layer_1" xmlns="http://www.w3.org/2000/svg" xmlns:xlink="http://www.w3.org/1999/xlink" x="0px" y="0px"
	 width="32px" height="32.184px" viewBox="4.586 4.612 32 32.184" enable-background="new 4.586 4.612 32 32.184"
	 xml:space="preserve">
<path d="M23.314,9.275v14.002H9.249V9.275H23.314 M27.978,4.612H4.586v23.329h23.392V4.612L27.978,4.612z"/>
<path d="M24.96,17.432c4.267,0,7.739,3.472,7.739,7.739s-3.472,7.739-7.739,7.739s-7.739-3.472-7.739-7.739
	S20.692,17.432,24.96,17.432 M24.96,13.546c-6.42,0-11.625,5.204-11.625,11.625s5.204,11.625,11.625,11.625
	c6.42,0,11.625-5.204,11.625-11.625S31.38,13.546,24.96,13.546L24.96,13.546z"/>
</svg>
