<?xml version="1.0" encoding="utf-8"?>
<!-- Generator: Adobe Illustrator 17.0.0, SVG Export Plug-In . SVG Version: 6.00 Build 0)  -->
<!DOCTYPE svg PUBLIC "-//W3C//DTD SVG 1.1//EN" "http://www.w3.org/Graphics/SVG/1.1/DTD/svg11.dtd">
<svg version="1.1" id="Layer_1" xmlns="http://www.w3.org/2000/svg" xmlns:xlink="http://www.w3.org/1999/xlink" x="0px" y="0px"
	 width="16px" height="16px" viewBox="4 4 16 16" enable-background="new 4 4 16 16" xml:space="preserve">
<path fill="#030D45" d="M12,5.231c-3.739,0-6.769,3.031-6.769,6.769c0,3.739,3.031,6.769,6.769,6.769
	c3.739,0,6.769-3.03,6.769-6.769S15.739,5.231,12,5.231z M4,12c0-4.419,3.581-8,8-8s8,3.581,8,8s-3.581,8-8,8S4,16.419,4,12z"/>
<path fill="#030D45" d="M12,7.282c0.34,0,0.615,0.276,0.615,0.615V12c0,0.164-0.065,0.32-0.18,0.436l-2.461,2.461
	c-0.24,0.24-0.63,0.24-0.87,0s-0.24-0.63,0-0.87l2.281-2.281V7.898C11.385,7.557,11.66,7.282,12,7.282z"/>
</svg>
