<?xml version="1.0" encoding="utf-8"?>
<!-- Generator: Adobe Illustrator 17.0.0, SVG Export Plug-In . SVG Version: 6.00 Build 0)  -->
<!DOCTYPE svg PUBLIC "-//W3C//DTD SVG 1.1//EN" "http://www.w3.org/Graphics/SVG/1.1/DTD/svg11.dtd">
<svg version="1.1" id="Layer_1" xmlns="http://www.w3.org/2000/svg" xmlns:xlink="http://www.w3.org/1999/xlink" x="0px" y="0px"
	 width="16px" height="16px" viewBox="248 248 16 16" enable-background="new 248 248 16 16" xml:space="preserve">
<path fill="#939598" d="M262.5,248c0.828,0,1.5,0.672,1.5,1.5v9c0,0.828-0.672,1.5-1.5,1.5h-9c-0.828,0-1.5-0.672-1.5-1.5v-9
	c0-0.828,0.672-1.5,1.5-1.5H262.5 M253.5,261c-1.378,0-2.5-1.121-2.5-2.5V252h-1.5c-0.828,0-1.5,0.672-1.5,1.5v9
	c0,0.828,0.672,1.5,1.5,1.5h9c0.828,0,1.5-0.672,1.5-1.5V261H253.5z"/>
</svg>
