<?xml version="1.0" encoding="utf-8"?>
<!-- Generator: Adobe Illustrator 17.0.0, SVG Export Plug-In . SVG Version: 6.00 Build 0)  -->
<!DOCTYPE svg PUBLIC "-//W3C//DTD SVG 1.1//EN" "http://www.w3.org/Graphics/SVG/1.1/DTD/svg11.dtd">
<svg version="1.1" id="Layer_1" xmlns="http://www.w3.org/2000/svg" xmlns:xlink="http://www.w3.org/1999/xlink" x="0px" y="0px"
	 width="12px" height="12px" viewBox="1.5 1.5 12 12" enable-background="new 1.5 1.5 12 12" xml:space="preserve">
<path fill="#FFFFFF" d="M1.888,1.888c0.517-0.517,1.354-0.517,1.871,0L7.5,5.63l3.741-3.741c0.517-0.517,1.354-0.517,1.871,0
	s0.517,1.354,0,1.871L9.371,7.5l3.741,3.741c0.517,0.517,0.517,1.354,0,1.871s-1.354,0.517-1.871,0L7.5,9.371l-3.741,3.741
	c-0.517,0.517-1.354,0.517-1.871,0s-0.517-1.354,0-1.871L5.63,7.5L1.888,3.759C1.372,3.242,1.372,2.404,1.888,1.888z"/>
</svg>
