<?xml version="1.0" encoding="utf-8"?>
<!-- Generator: Adobe Illustrator 17.0.0, SVG Export Plug-In . SVG Version: 6.00 Build 0)  -->
<!DOCTYPE svg PUBLIC "-//W3C//DTD SVG 1.1//EN" "http://www.w3.org/Graphics/SVG/1.1/DTD/svg11.dtd">
<svg version="1.1" id="Layer_1" xmlns="http://www.w3.org/2000/svg" xmlns:xlink="http://www.w3.org/1999/xlink" x="0px" y="0px"
	 width="15px" height="15px" viewBox="0 0 15 15" enable-background="new 0 0 15 15" xml:space="preserve">
<path fill="#3A52EE" d="M0.485,0.484c0.646-0.646,1.693-0.646,2.339,0L7.5,5.162l4.677-4.677c0.646-0.646,1.693-0.646,2.339,0
	s0.646,1.693,0,2.339L9.839,7.5l4.677,4.677c0.646,0.646,0.646,1.693,0,2.339s-1.693,0.646-2.339,0L7.5,9.839l-4.677,4.677
	c-0.646,0.646-1.693,0.646-2.339,0s-0.646-1.693,0-2.339L5.162,7.5L0.485,2.823C-0.161,2.177-0.161,1.13,0.485,0.484z"/>
</svg>
