<?xml version="1.0" encoding="utf-8"?>
<!-- Generator: Adobe Illustrator 17.0.0, SVG Export Plug-In . SVG Version: 6.00 Build 0)  -->
<!DOCTYPE svg PUBLIC "-//W3C//DTD SVG 1.1//EN" "http://www.w3.org/Graphics/SVG/1.1/DTD/svg11.dtd">
<svg version="1.1" id="Layer_1" xmlns="http://www.w3.org/2000/svg" xmlns:xlink="http://www.w3.org/1999/xlink" x="0px" y="0px"
	 width="821.826px" height="600px" viewBox="0 0 821.826 600" enable-background="new 0 0 821.826 600" xml:space="preserve">
<g>
	<linearGradient id="SVGID_1_" gradientUnits="userSpaceOnUse" x1="127.5969" y1="617.4878" x2="659.4675" y2="85.6172">
		<stop  offset="0" style="stop-color:#525DAA"/>
		<stop  offset="1" style="stop-color:#7FD0DE"/>
	</linearGradient>
	<path opacity="0.5" fill="url(#SVGID_1_)" d="M754.876,534.371c74.943-71.541,92.848-217.605,23.433-319.162
		C720.451,130.563,613.88,43.492,479.588,18.111C345.294-7.271,227.644-7.242,176.763,26.289
		c-41.638,27.44-22.283,65.657-9.225,98.132c17.431,43.353,20,77.773-51.71,140.753C33.967,337.066,11.81,364.055,7.707,433.571
		C4.369,490.11,51.572,566.162,113.512,577.058c86.229,15.172,118.235-24.902,202.596-51.916
		c67.675-21.672,114.613-11.538,175.97,29.995C553.437,596.672,644.895,639.358,754.876,534.371z"/>
	<g>
		<g>
			<path fill="#293250" d="M820.348,549.606H34.347c-0.386,0-0.701-0.316-0.701-0.702l0,0c0-0.386,0.315-0.701,0.701-0.701h786.001
				c0.386,0,0.701,0.316,0.701,0.701l0,0C821.049,549.29,820.733,549.606,820.348,549.606z"/>
		</g>
		<path fill="#AFC9E9" d="M323.783,294.963l-10.317-0.237c3.315,4.296,4.059,8.254,1.996,11.603
			c-2.063,3.416-7.002,6.224-14.376,8.355c5.581-14.85,8.389-30.511,8.389-46.579c0-17.996-3.518-35.45-10.486-51.856
			c-6.697-15.865-16.304-30.139-28.549-42.351c-12.245-12.245-26.486-21.852-42.351-28.583
			c-16.44-6.935-33.894-10.452-51.856-10.452c-17.996,0-35.45,3.518-51.89,10.452c-1.962,0.846-3.924,1.725-5.818,2.639
			c-0.006,0.003-0.012,0.006-0.018,0.009c-5.73-1.749-11.312-3.182-16.698-4.273c-27.186-5.517-46.479-1.704-54.316,10.737
			c-7.458,11.832-3.398,29.642,11.401,50.414c-0.002,0.003-0.004,0.007-0.005,0.01c-1.996,3.687-3.789,7.476-5.446,11.4
			c-1.251,2.943-2.368,5.886-3.383,8.896c-27.805,1.657-42.689,6.551-48.101,15.414c-6.292,10.317,2.3,24.163,29.801,37.626
			c3.789,1.86,7.848,3.687,12.11,5.514c1.421,12.482,4.634,24.626,9.573,36.262c6.698,15.865,16.304,30.139,28.549,42.384
			c12.245,12.211,26.486,21.818,42.351,28.55c16.44,6.934,33.894,10.452,51.89,10.452c17.962,0,35.416-3.518,51.856-10.452
			c15.865-6.732,30.105-16.338,42.351-28.55c11.907-11.907,21.345-25.776,28.008-41.133c13.564-2.808,22.495-7.205,26.046-13.023
			C326.962,304.164,326.658,299.699,323.783,294.963z M291.952,316.781c-9.031,1.623-20.296,2.571-33.454,2.706
			c-20.418,0.249-43.868-1.364-68.58-4.62c2.079-4.527,4.118-9.178,6.106-13.936c7.668,2.566,15.111,4.597,22.208,6.038
			c8.131,1.651,15.552,2.465,22.175,2.465c15.525,0,26.648-4.482,32.141-13.202c0.904-1.436,1.642-2.959,2.21-4.568h-7.914
			c-0.131,0.241-0.271,0.479-0.416,0.711c-4.08,6.477-13.199,9.823-26.002,9.82c-6.124,0-13.095-0.764-20.756-2.32
			c-6.678-1.355-13.681-3.257-20.902-5.654c1.905-4.767,3.758-9.627,5.547-14.56c4.824-13.301,8.954-26.487,12.295-39.149
			c15.226,2.245,31.567,3.372,48.932,3.372c10.811,0,22.021-0.436,33.6-1.31c1.719,8.335,2.588,16.866,2.588,25.529
			C301.728,284.984,298.447,301.356,291.952,316.781z M127.071,382.836c-3.849-1.396-5.803-6.921-6.764-11.309
			c-1.519-6.935-1.794-16.677-0.795-28.171c0.506-5.813,1.318-11.994,2.412-18.459c15.777,4.205,31.4,9.612,46.613,16.129
			c-3.427,5.909-6.892,11.388-10.356,16.354c-6.601,9.463-13.057,16.763-18.669,21.112
			C135.961,381.245,130.92,384.232,127.071,382.836z M172.022,334.841c-15.924-6.862-32.295-12.533-48.831-16.91
			c0.583-3.001,1.222-6.054,1.916-9.154c4.598,1.046,9.261,2.058,13.983,3.032c13.817,2.826,27.601,5.225,41.094,7.166
			C177.512,324.504,174.784,329.804,172.022,334.841z M142.135,306.802c-5.339-1.098-10.6-2.246-15.77-3.438
			c2.434-10.128,5.424-20.688,8.915-31.447c18.146,11.155,36.601,20.229,54.074,26.669c-2.192,5.233-4.444,10.336-6.743,15.275
			C169.338,311.957,155.759,309.596,142.135,306.802z M97.815,170.082c1.156,2.368,2.753,5.305,4.905,8.632
			c9.174,14.177,21.29,24.454,29.838,30.579c4.909,3.517,10.147,6.777,15.7,9.775c-5.068,11.043-9.895,22.829-14.333,35.066
			c-0.827,2.282-1.632,4.559-2.419,6.832c-26.51-17.256-48.954-37.056-63.678-56.219c-0.002-0.003-0.004-0.005-0.006-0.008
			c3.686-6.288,7.912-12.239,12.646-17.817c1.962-2.3,3.992-4.533,6.123-6.698c0.304-0.304,0.575-0.575,0.879-0.879
			C90.764,176.052,94.218,172.966,97.815,170.082z M211.169,150.959c3.849,1.396,5.803,6.921,6.764,11.309
			c1.519,6.936,1.794,16.677,0.795,28.171c-1.094,12.582-3.614,26.872-7.363,42.088c-4.528-0.779-8.952-1.66-13.259-2.651
			c-14.882-3.423-28.448-8.104-40.564-13.984c7.229-15.076,14.874-28.521,22.517-39.478c6.601-9.463,13.057-16.763,18.669-21.112
			c2.928-2.269,6.869-4.698,10.32-4.698C209.781,150.605,210.494,150.715,211.169,150.959z M196.041,236.645
			c4.409,1.024,8.938,1.932,13.57,2.739c-3.254,12.244-7.262,24.996-11.932,37.872c-1.8,4.963-3.664,9.849-5.581,14.637
			c-17.542-6.441-36.161-15.653-54.466-27.031c0.946-2.766,1.922-5.54,2.931-8.321c4.339-11.963,9.047-23.476,13.985-34.258
			C166.989,228.312,180.863,233.121,196.041,236.645z M264.959,179.345c11.535,11.535,20.6,24.964,26.926,39.915
			c2.256,5.341,4.127,10.8,5.612,16.356c-28.93,2.115-55.441,1.451-79.139-1.979c3.761-15.365,6.292-29.819,7.403-42.585
			c1.226-14.098,1.077-30.797-4.639-40.195c1.325,0.509,2.644,1.04,3.957,1.596C240.029,158.778,253.457,167.81,264.959,179.345z
			 M176.232,142.575c8.694,0,17.245,0.875,25.604,2.611c-9.86,4.292-19.926,16.237-27.567,27.191
			c-7.821,11.21-15.63,24.931-23.005,40.289c-4.976-2.704-9.683-5.624-14.104-8.761c-14.668-10.406-23.455-21.303-28.244-28.611
			c-2.542-3.88-4.257-7.186-5.349-9.558c5.149-3.662,10.562-6.933,16.223-9.788c0.002,0.001,0.003,0.001,0.005,0.002
			c2.304-1.163,4.654-2.251,7.039-3.272c0.173-0.074,0.344-0.15,0.518-0.223c0.039-0.018,0.08-0.033,0.12-0.051
			c0.509-0.215,1.02-0.424,1.531-0.631c0.137-0.054,0.277-0.11,0.412-0.164C144.266,145.62,160.029,142.575,176.232,142.575z
			 M53.614,158.283c4.08-6.477,13.199-9.82,26.002-9.82c6.124,0,13.095,0.764,20.756,2.32c2.909,0.589,5.88,1.282,8.901,2.079
			c0.003,0.001,0.005,0.002,0.008,0.002c-9.942,5.75-19.072,12.784-27.29,21.035c-1.725,1.691-3.383,3.45-5.006,5.277
			c-2.03,2.233-3.958,4.567-5.818,6.935c-2.977,3.789-5.717,7.746-8.254,11.805c-0.002,0.003-0.004,0.007-0.006,0.01
			C51.594,181.127,48.192,166.883,53.614,158.283z M60.546,219.26c1.116-2.571,2.266-5.108,3.518-7.577
			c0.001-0.002,0.002-0.004,0.003-0.006c15.503,19.378,38.354,39.188,65.053,56.368c-3.786,11.522-7.016,22.846-9.622,33.698
			c-19.424-4.699-37.426-10.017-53.201-15.709c-3.315-1.184-6.529-2.402-9.607-3.62c-1.827-0.71-3.62-1.454-5.378-2.199
			c-0.271-2.706-0.474-5.446-0.541-8.186c-0.034-1.319-0.068-2.605-0.068-3.924c0-1.522,0.034-3.078,0.068-4.6
			c0.44-11.4,2.368-22.529,5.751-33.285c0.575-1.827,1.184-3.62,1.861-5.412C59.057,222.947,59.768,221.086,60.546,219.26z
			 M37.916,274.194C13.933,262.49,2.973,251.192,7.878,243.175c3.958-6.495,18.368-10.892,40.423-12.516
			c-2.706,9.133-4.364,18.57-5.006,28.144c-0.203,2.841-0.304,5.683-0.338,8.558v0.744c0,2.875,0.102,5.75,0.271,8.592
			C41.4,275.885,39.641,275.039,37.916,274.194z M56.114,288.57c3.247,1.218,6.562,2.435,9.979,3.62
			c15.705,5.442,33.31,10.5,52.142,14.987c-0.684,3.051-1.315,6.058-1.894,9.018c-1.539-0.373-3.079-0.739-4.62-1.09
			c-26.035-5.926-45.572-7.132-54.628-7.336c-2.243-6.757-3.893-13.668-4.937-20.722C53.476,287.555,54.795,288.062,56.114,288.57z
			 M60.546,316.95c-0.283-0.672-0.558-1.345-0.829-2.02c9.659,0.389,27.565,1.852,50.438,7.058c1.637,0.372,3.272,0.763,4.907,1.161
			c-1.177,6.866-2.046,13.427-2.582,19.595c-1.016,11.684-1.088,25.156,2.171,34.776c-9.919-5.584-19.016-12.492-27.179-20.655
			C75.937,345.33,66.871,331.901,60.546,316.95z M225.077,383.757c-15.492,6.562-31.898,9.877-48.845,9.877
			c-13.055,0-25.808-1.97-38.06-5.873c9.285-4.867,18.614-16.044,25.799-26.342c3.706-5.312,7.409-11.191,11.065-17.536
			c21.078,9.546,41.346,21.272,60.385,34.934C232.061,380.613,228.612,382.262,225.077,383.757z M264.959,356.865
			c-6.938,6.958-14.578,13.003-22.829,18.095c-19.999-14.617-41.367-27.128-63.629-37.256c3.061-5.608,6.077-11.531,9.022-17.714
			c20.377,2.701,39.967,4.321,57.851,4.74c4.668,0.135,9.201,0.135,13.598,0.102c11.399-0.135,21.547-0.812,30.241-2.03
			C283.123,335.419,274.971,346.853,264.959,356.865z"/>
		<g>
			<path fill="#E48638" d="M578.655,278.418c0,0,25.094,24.696,26.242,34.008c1.148,9.312-11.382,23.88-11.382,23.88
				L578.655,278.418z"/>
			<path fill="#183660" d="M569.598,534.917c0,0-0.814,13.129-3.354,13.317c-0.338,0.025-12.883,0.025-12.883,0.025l-16.014-0.093
				c0,0,0.104-3.858,4.785-4.674c4.681-0.816,12.516-4.105,15.352-10.292C560.468,526.691,569.598,534.917,569.598,534.917z"/>
			<path fill="#183660" d="M605.267,534.917c0,0-0.814,13.129-3.354,13.317c-0.338,0.025-12.883,0.025-12.883,0.025l-16.014-0.093
				c0,0,0.105-3.858,4.786-4.674c4.681-0.816,12.516-4.105,15.351-10.292C596.137,526.691,605.267,534.917,605.267,534.917z"/>
			<path fill="#183660" d="M551.863,393.82c0,0,4.189,26.787,19.813,74.338c15.624,47.552,17.753,68.142,17.753,68.142l16.761-0.47
				c0,0,0.143-51.968-7.058-75.88c-7.201-23.912-1.554-86.205-1.554-86.205L551.863,393.82z"/>
			<path fill="#1C478A" d="M543.707,375.214c0,0-0.593,40.366,6.391,89.929c6.984,49.563,4.617,70.602,4.617,70.602l16.727,0.556
				c0,0,9.996-49.581,7.131-74.389c-2.866-24.807,13.689-85.125,13.689-85.125L543.707,375.214z"/>
			<path fill="#FAB17E" d="M576.089,280.751l-7.889,5.843l-11.402-2.4c0.158-1.04,0.91-5.349,1.596-9.253
				c0.041-0.23,0.083-0.46,0.122-0.686c0.587-3.321,1.094-6.174,1.094-6.174l10.649-5.308l3.971-1.979
				c-0.01,0.07-0.308,3.686-0.349,4.214C573.134,274.383,576.089,280.751,576.089,280.751z"/>
			<path fill="#E48638" d="M557.595,277.803c0.25-0.105,15.51-4.609,17.168-4.061c1.658,0.547,2.639,3.755,2.639,3.755
				l-24.961,5.643C552.441,283.14,554.406,279.146,557.595,277.803z"/>
			<path fill="#EE994B" d="M598.689,380.197c-2.587,11.801-45.638,13.2-56.735,2.488c-1.262-1.221-1.324-6.901-0.848-14.56
				c0.931-14.964,3.921-37.474,4.038-48.974c0.057-5.554,0.82-11.234,1.836-16.392c2.163-10.994,5.461-19.62,5.461-19.62
				s21.027-6.798,24.962-5.642C596.358,283.066,601.275,368.397,598.689,380.197z"/>
			<path fill="#E48638" d="M541.106,368.125c0.931-14.964,3.921-37.474,4.038-48.974c0.057-5.554,0.82-11.234,1.836-16.392
				l12.649-2.232C559.629,300.527,571.996,351.04,541.106,368.125z"/>
			<path fill="#FAB17E" d="M547.955,347.267c0,0,0.862,2.061-0.948,3.445c-1.811,1.384-2.985,3.625-2.571,5.264
				c0.415,1.638,4.387,4.311,5.764,3.88c1.377-0.431,4.179-2.589,3.877-3.453c-0.302-0.864,1.885-7.583-1.472-10.17
				C549.249,343.646,547.955,347.267,547.955,347.267z"/>
			<path fill="#EE994B" d="M562.075,280.52c0,0-12.311,1.9-22.141,16.386c-9.829,14.485-16.296,25.255-14.485,30.476
				c1.811,5.221,18.316,23.328,21.161,23.328c2.845,0,7.437-2.07,7.696-6.726c0,0-11.62-17.416-9.331-20.025
				c0.978-1.115,15.086-12.568,17.101-7.395C565.407,325.124,562.075,280.52,562.075,280.52z"/>
			<path fill="#F9A56C" d="M573.08,265.174c-2.338,4.475-11.053,8.345-14.687,9.767c0.041-0.23,0.083-0.46,0.122-0.686
				c0.587-3.321,1.094-6.174,1.094-6.174l10.649-5.308C572.612,262.737,574.045,263.332,573.08,265.174z"/>
			<path fill="#FAB17E" d="M554.434,267.458c0,0,19.213,5.993,22.761-6.029c3.548-12.022,8.418-19.346-3.699-23.68
				c-12.117-4.335-15.865-0.454-18.025,3.271C553.309,244.744,549.527,265.589,554.434,267.458z"/>
			<path fill="#183660" d="M558.483,240.32c0,0,1.109,14.433,4.014,13.781c2.905-0.652,5.539-1.139,5.078,3.219
				c-0.46,4.357-4.523,9.419,4.407,10.113c8.93,0.694,21.972-23.155,19.554-27.629C584.56,226.895,548.376,224.585,558.483,240.32z"
				/>
		</g>
		<g>
			<g>
				<path fill="#E59A64" d="M694.06,372.234c0,0-7.369,1.893-12.053,0.482c-4.685-1.411-12.747,0.906-14.046,2.615
					c-1.298,1.708-0.821,2.387,1.496,2.976c2.317,0.59,10.525,4.091,15.92,2.064c5.395-2.026,12.431-2.1,12.431-2.1L694.06,372.234z
					"/>
				<path fill="#5074B9" d="M757.748,308.22c0,0-8.278,58.837-21.986,64.107c-6.764,2.6-36.656,8.495-45.498,9.087
					c0,0-2.166-1.757-1.638-8.91c0,0,31.318-11.498,35.767-17.751c6.622-9.306-4.111-38.017,4.198-46.758
					C736.9,299.255,750.894,295.499,757.748,308.22z"/>
			</g>
			<path fill="#2B488C" d="M756.691,535.034v-12.939h20.196c0.545,0,0.991-0.446,0.991-0.991v-2.055
				c0-0.545-0.446-0.991-0.991-0.991h-20.196v-73.025c0-2.049-1.677-3.726-3.726-3.726h-3.997c-2.049,0-3.726,1.677-3.726,3.726
				v73.025h-20.196c-0.545,0-0.991,0.446-0.991,0.991v2.055c0,0.545,0.446,0.991,0.991,0.991h20.196v12.939
				c-14.614,1.104-26.32,6.368-29.605,13.165h70.657C783.011,541.401,771.305,536.138,756.691,535.034z"/>
			<path fill="#183660" d="M754.958,432.177c-2.415,4.096-5.208,7.935-8.087,11.57c-8.897,11.232-18.583,20.493-20.27,29.247
				c-0.335,1.745-0.868,3.624-1.564,5.603c-0.704,2.005-1.576,4.113-2.581,6.293c-3.775,8.201-9.422,17.391-15.059,25.744
				c-9.745,14.44-18.909,26.49-18.909,26.49l-16.806-0.716c0.673-1.684,8.003-21.623,17.808-45.989
				c3.982-9.891,8.215-20.413,12.3-30.559c0.545-1.355,1.089-2.704,1.627-4.042c1.249-3.105,2.478-6.162,3.678-9.138
				c9.207-22.879,16.54-41.098,16.54-41.098s36.798-13.94,40.62-4.907C767.408,408.124,764.841,415.42,754.958,432.177z"/>
			<path fill="#183660" d="M687.964,534.07c0,0-0.822,13.934-3.505,14.133c-0.357,0.026-30.692,0-30.692,0s0.242-4.214,5.186-5.075
				c4.944-0.862,13.22-4.337,16.216-10.872C678.32,525.381,687.964,534.07,687.964,534.07z"/>
			<path fill="#183660" d="M726.878,494.452c0,0,11.689,7.511,10.555,9.951c-0.151,0.324-6.611,11.894-6.611,11.894l-8.332,14.722
				c0,0-3.505-2.084-1.847-6.821s2.658-13.657-1.587-19.458C714.59,498.637,726.878,494.452,726.878,494.452z"/>
			<path fill="#1C478A" d="M711.354,398.807c0,0-46.48,28.931-51.636,48.266c-5.156,19.335,61.442,60.583,61.442,60.583
				s7.304-6.445,8.593-11.171c0,0-30.103-36.066-36.633-44.15c-4.01-4.965,59.297-17.188,67.031-29.219
				c7.734-12.03,4.965-22.153,4.965-22.153L711.354,398.807z"/>
			<path fill="#EE994B" d="M798.232,435.911h-94.531c-1.891,0-3.438,1.547-3.438,3.438v18.906c0,1.891,1.547,3.438,3.438,3.438
				h94.531c1.891,0,3.438-1.547,3.438-3.438v-18.906C801.67,437.459,800.123,435.911,798.232,435.911z"/>
			<path fill="#E59A64" d="M754.793,297.118c0,0-18.342,10.254-29.409,7.392c0,0,2.502-3.566,7.038-6.376
				c-0.242-1.077-0.454-2.091-0.636-3.034c-1.059-5.403-1.249-8.547-1.249-8.547l8.451-7.572c2.338,0.495,4.522,0.959,5.682,1.204
				c0.109,0.558,0.229,1.1,0.365,1.632C747.671,292.333,754.793,297.118,754.793,297.118z"/>
			<path fill="#7A97CD" d="M766.511,350.379c-1.585,21.319,0.501,53.739-1.298,59.353c-1.554,4.846-19.233,1.965-26.292,0.349
				c-2.612-0.6-5.776-1.454-9.042-2.466c-9.115-2.823-19.049-6.853-20.115-9.845c-0.039-0.117-0.076-0.232-0.097-0.344
				c0-0.003,0-0.005,0-0.005c-0.018-0.076-0.031-0.151-0.041-0.224c-0.047-0.352-0.018-0.685,0.06-1.024
				c0.355-1.525,1.723-3.175,1.884-6.952c0.18-4.215,0.154-9.18,0.313-14.518c0.008-0.602,0.016-1.259,0.081-1.856l0.003-0.219
				c0.002-0.115,0.005-0.227,0.008-0.341c0.154-5.953,0.466-12.214,0.826-18.42c0.229-3.9,0.495-7.762,0.8-11.461
				c0.795-9.55,1.866-18.042,3.284-23.409c2.317-8.753,7.426-14.461,12.078-18.645l3.363-2.885
				c3.753,0.821,8.192,0.276,12.206-1.626c4.342-2.062,5.844-3.54,6.599-2.982C761.165,300.6,768.383,324.32,766.511,350.379z"/>
			<path fill="#5074B9" d="M729.88,407.616c-9.115-2.823-19.049-6.853-20.115-9.845c-0.039-0.117-0.076-0.232-0.097-0.344
				c0-0.003,0-0.005,0-0.005c0-0.073-0.015-0.149-0.041-0.224c-0.047-0.352-0.018-0.685,0.06-1.024
				c0.355-1.525,1.723-3.175,1.884-6.952c0.18-4.215,0.154-9.18,0.313-14.518c0.008-0.602,0.016-1.259,0.081-1.856l0.003-0.219
				c0.002-0.115,0.005-0.227,0.008-0.341l34.432-15.616C746.407,356.672,748.391,384.421,729.88,407.616z"/>
			<path fill="#D58D5C" d="M745.034,281.818c-1.252,3.162-4.997,10.616-13.249,13.283c-1.059-5.403-1.249-8.547-1.249-8.547
				l8.451-7.572c2.338,0.495,4.522,0.959,5.682,1.204C744.778,280.744,744.898,281.286,745.034,281.818z"/>
			<path fill="#E59A64" d="M727.194,286.472c0,0,18.133,2.045,19.233-9.267c1.1-11.312,4.181-18.666-7.35-20.451
				c-11.531-1.784-14.203,2.313-15.489,6C722.302,266.441,722.505,285.648,727.194,286.472z"/>
			<path fill="#2B488C" d="M746.349,277.986c0,0-1.15-15.015-17.656-16.571c-11.305-1.065-5.002-10.796-3.797-12.348
				c0,0,8.662,1.188,17.541,2.655C761.072,254.801,748.179,275.648,746.349,277.986z"/>
			<polygon fill="#5074B9" points="702.778,383.772 657.846,384.732 645.071,345.416 643.483,345.932 656.988,387.494 
				702.837,386.515 			"/>
			<g>
				<path fill="#E59A64" d="M697.852,381.279c0,0-7.116,2.693-11.927,1.807c-4.811-0.886-12.569,2.307-13.671,4.147
					c-1.102,1.841-0.554,2.463,1.814,2.793c2.368,0.33,10.912,2.905,16.05,0.297s12.124-3.458,12.124-3.458L697.852,381.279z"/>
				<path fill="#7A97CD" d="M754.095,310.634c0,0-1.741,59.391-14.784,66.14c-6.436,3.33-35.496,12.484-44.219,14.047
					c0,0-2.347-1.508-2.611-8.675c0,0,29.859-14.88,33.592-21.586c5.555-9.979-8.277-37.333-0.982-46.935
					C732.385,304.023,745.88,298.747,754.095,310.634z"/>
			</g>
		</g>
		<g>
			<g>
				<path fill="#D76927" d="M262.111,315.758l-18.426,219.092c0,0-1.931,13.281,7.948,13.304c16.243,0.039,80.845,0,80.845,0
					s-12.225-2.765-12.077-8.985c0.175-7.332,21.536-225.485,21.536-225.485L262.111,315.758z"/>
				<path fill="#EE994B" d="M337.72,544.179c-3.195,0.009-64.898,0.203-80.716,0c-6.893-0.086-8.102-6.129-8.159-10.041
					c-0.028-1.875,0.209-3.261,0.209-3.261l0.479-5.694l1.222-14.514l1.078-12.823l1.386-16.478l1.167-13.908l13.093-155.68
					l79.827-2.072c0,0-8.997,91.296-15.361,157.751c-0.711,7.404-1.386,14.504-2.011,21.131c-0.203,2.116-0.397,4.185-0.587,6.199
					c-0.59,6.288-1.129,12.061-1.599,17.16c-0.247,2.687-0.476,5.184-0.682,7.471c-0.812,8.962-1.288,14.685-1.294,15.773
					c-0.003,0.634,0.051,1.224,0.155,1.773C327.239,543.951,336.521,544.179,337.72,544.179z"/>
				<polygon fill="#F0A350" points="68.247,196.536 113.13,376.822 119.275,401.512 140.18,485.484 528.548,485.484 
					451.498,196.536 				"/>
				<polygon fill="#EE994B" points="68.246,196.536 62.026,198.609 131.91,491.756 140.18,485.485 				"/>
				<polygon fill="#D76927" points="131.91,491.756 517.888,491.756 528.547,485.485 140.18,485.485 				"/>
				<rect x="267.454" y="544.267" fill="#F0A350" width="83.57" height="3.971"/>
				<polygon fill="#F0A350" points="509.733,432.241 446.715,200.356 67.626,200.356 67.626,196.536 451.497,196.536 
					514.304,431.725 				"/>
				<polygon fill="#D76927" points="329.78,491.755 329.348,494.791 250.755,510.669 251.833,497.846 252.347,491.755 				"/>
				<path opacity="0.4" fill="#D76927" d="M337.72,544.179c-3.195,0.009-64.898,0.203-80.716,0
					c-6.893-0.086-8.102-6.129-8.159-10.041l78.222-14.717c-0.812,8.962-1.288,14.685-1.294,15.773
					c-0.003,0.634,0.051,1.224,0.155,1.773C327.239,543.951,336.521,544.179,337.72,544.179z"/>
				<polygon opacity="0.4" fill="#D76927" points="310.784,426.99 140.18,485.485 119.275,401.512 				"/>
				<polygon fill="#729AD1" points="68.246,196.536 451.497,196.536 513.681,428.759 124.084,428.759 				"/>
			</g>
			<path fill="#D76927" d="M344.659,458.115c-1.107-5.695-6.621-10.312-12.316-10.312c-5.695,0-9.415,4.617-8.308,10.312
				c1.107,5.695,6.621,10.312,12.316,10.312C342.047,468.427,345.766,463.811,344.659,458.115z"/>
			<polygon fill="#EAF2FB" points="495.605,418.696 136.766,418.696 96.128,256.809 93.013,244.394 90.354,233.805 84.122,208.975 
				437.789,208.975 444.633,233.805 447.553,244.394 450.975,256.809 			"/>
			<polygon fill="#B2CBEA" points="444.633,233.805 90.354,233.805 84.122,208.975 437.789,208.975 			"/>
			<g>
				<path fill="#EAF2FB" d="M101.083,217.092c-1.714,0-2.758,1.39-2.33,3.104c0.427,1.714,2.163,3.104,3.878,3.104
					c1.714,0,2.757-1.39,2.33-3.104C104.533,218.482,102.797,217.092,101.083,217.092z"/>
				<path fill="#EAF2FB" d="M111.396,217.092c-1.714,0-2.758,1.39-2.33,3.104c0.427,1.714,2.164,3.104,3.878,3.104
					c1.714,0,2.758-1.39,2.33-3.104C114.846,218.482,113.11,217.092,111.396,217.092z"/>
				<path fill="#EAF2FB" d="M126.379,220.196c-0.427-1.714-2.163-3.104-3.878-3.104c-1.714,0-2.758,1.39-2.33,3.104
					c0.427,1.714,2.164,3.104,3.878,3.104C125.763,223.3,126.807,221.91,126.379,220.196z"/>
			</g>
			<g>
				<g>
					<path fill="#F0A350" d="M383.168,306.332c-2.591-10.39-13.16-18.844-23.56-18.844c-5.015,0-9.289,1.935-12.034,5.448
						c-2.859,3.66-3.718,8.548-2.417,13.764c2.591,10.39,13.16,18.844,23.56,18.844c5.015,0,9.289-1.935,12.034-5.449
						C383.61,316.436,384.469,311.548,383.168,306.332z M379.551,319.159c-2.45,3.136-6.298,4.863-10.834,4.863
						c-9.745,0-19.651-7.935-22.083-17.69c-1.185-4.751-0.425-9.176,2.14-12.458c2.45-3.136,6.298-4.863,10.834-4.863
						c9.745,0,19.651,7.936,22.083,17.69C382.876,311.452,382.116,315.876,379.551,319.159z"/>
					<polygon fill="#F0A350" points="366.554,310.771 364.66,297.525 364.51,296.926 359.176,296.926 359.326,297.525 
						364.036,310.771 					"/>
					<polygon fill="#F0A350" points="363.451,313.109 364.646,317.903 369.501,317.903 368.305,313.109 					"/>
				</g>
				<g>
					<path fill="#F0A350" d="M394.752,351.332c-2.591-10.391-13.16-18.844-23.56-18.844c-5.015,0-9.289,1.935-12.034,5.448
						c-2.859,3.66-3.718,8.548-2.417,13.764c2.591,10.391,13.16,18.844,23.56,18.844c5.015,0,9.289-1.935,12.034-5.448
						C395.194,361.436,396.053,356.548,394.752,351.332z M391.135,364.159c-2.45,3.136-6.298,4.863-10.834,4.863
						c-9.745,0-19.651-7.936-22.083-17.69c-1.185-4.752-0.425-9.176,2.14-12.459c2.45-3.136,6.298-4.863,10.834-4.863
						c9.745,0,19.651,7.936,22.083,17.69C394.46,356.452,393.7,360.876,391.135,364.159z"/>
					<polygon fill="#F0A350" points="378.138,355.771 376.244,342.525 376.094,341.926 370.76,341.926 370.91,342.525 
						375.62,355.771 					"/>
					<polygon fill="#F0A350" points="375.034,358.108 376.23,362.903 381.084,362.903 379.889,358.108 					"/>
				</g>
				<g>
					<path fill="#B2CBEA" d="M434.462,300.547c1.179,0,1.904-0.965,1.61-2.144c-0.294-1.179-1.499-2.144-2.679-2.144h-38.188
						c-1.179,0-1.904,0.965-1.61,2.144c0.294,1.179,1.5,2.144,2.679,2.144H434.462z"/>
					<path fill="#B2CBEA" d="M429.735,270.085c-0.294-1.179-1.499-2.144-2.679-2.144h-38.188c-1.179,0-1.904,0.965-1.61,2.144
						c0.294,1.179,1.5,2.144,2.679,2.144h38.188C429.305,272.229,430.029,271.264,429.735,270.085z"/>
					<path fill="#B2CBEA" d="M436.499,308.715c1.18,0,1.904-0.965,1.61-2.144s-1.499-2.144-2.679-2.144h-38.188
						c-1.179,0-1.904,0.965-1.61,2.144c0.294,1.179,1.499,2.144,2.679,2.144H436.499z"/>
					<path fill="#B2CBEA" d="M440.145,314.74c-0.294-1.179-1.499-2.144-2.679-2.144h-38.188c-1.179,0-1.904,0.965-1.61,2.144
						c0.294,1.179,1.5,2.144,2.679,2.144h38.188C439.715,316.884,440.439,315.919,440.145,314.74z"/>
					<path fill="#B2CBEA" d="M446.046,345.546c1.179,0,1.904-0.965,1.61-2.144c-0.294-1.179-1.5-2.144-2.679-2.144h-38.188
						c-1.179,0-1.904,0.965-1.61,2.144c0.294,1.179,1.499,2.144,2.679,2.144H446.046z"/>
					<path fill="#B2CBEA" d="M448.083,353.715c1.179,0,1.904-0.965,1.61-2.144c-0.294-1.179-1.499-2.144-2.679-2.144h-38.188
						c-1.179,0-1.904,0.965-1.61,2.144c0.294,1.179,1.499,2.144,2.679,2.144H448.083z"/>
					<path fill="#B2CBEA" d="M451.729,359.739c-0.294-1.179-1.5-2.144-2.679-2.144h-38.188c-1.179,0-1.904,0.965-1.61,2.144
						c0.294,1.18,1.499,2.144,2.679,2.144h38.188C451.299,361.883,452.023,360.918,451.729,359.739z"/>
				</g>
				<path fill="#B2CBEA" d="M428.127,261.07l-2.666-10.691c-0.489-1.961-2.493-3.564-4.453-3.564H114.925
					c-1.96,0-3.164,1.604-2.676,3.564l2.665,10.691c0.489,1.96,2.493,3.564,4.453,3.564h306.084
					C427.412,264.635,428.616,263.031,428.127,261.07z"/>
				<path fill="#F0A350" d="M331.903,246.815l4.443,17.819H119.368c-1.96,0-3.964-1.604-4.453-3.564l-2.665-10.69
					c-0.489-1.961,0.715-3.564,2.676-3.564H331.903z"/>
				<polygon fill="#729AD1" points="370.88,252.448 371.222,253.817 374.608,253.817 372.841,259.653 374.632,259.653 
					376.366,253.642 376.068,252.448 				"/>
				<path fill="#729AD1" d="M380.122,252.325c-1.915,0-2.803,1.637-2.283,3.726c0.526,2.11,2.195,3.726,4.12,3.726
					c1.925,0,2.803-1.637,2.283-3.726C383.716,253.941,382.027,252.325,380.122,252.325z M381.624,258.346
					c-0.957,0-1.829-0.978-2.158-2.295c-0.334-1.338,0.046-2.295,0.992-2.295s1.832,0.988,2.158,2.295
					C382.947,257.379,382.581,258.346,381.624,258.346z"/>
				<path fill="#729AD1" d="M393.686,257.893c-0.257-1.029-1.159-1.842-2.199-1.842c-1.05,0-1.555,0.823-1.301,1.842
					c0.257,1.029,1.159,1.843,2.199,1.843C393.435,259.736,393.938,258.902,393.686,257.893z M392.172,258.799
					c-0.412,0-0.784-0.422-0.905-0.906c-0.123-0.494,0-0.906,0.433-0.906c0.412,0,0.785,0.422,0.905,0.906
					C392.726,258.377,392.605,258.799,392.172,258.799z"/>
				<polygon fill="#729AD1" points="390.383,252.448 386.92,259.653 388.145,259.653 391.608,252.448 				"/>
				<path fill="#729AD1" d="M388.341,254.208c-0.257-1.029-1.159-1.842-2.199-1.842c-1.05,0-1.555,0.824-1.301,1.842
					c0.257,1.029,1.159,1.843,2.199,1.843C388.091,256.051,388.593,255.217,388.341,254.208z M385.922,254.208
					c-0.123-0.494,0.001-0.906,0.433-0.906c0.412,0,0.785,0.422,0.905,0.906c0.121,0.484-0.001,0.906-0.433,0.906
					C386.416,255.114,386.043,254.692,385.922,254.208z"/>
				<g>
					<path fill="#B2CBEA" d="M317.563,341.867c2.224,0,3.577-1.802,3.022-4.026l0,0c-0.554-2.224-2.806-4.026-5.03-4.026H137.078
						c-2.224,0-3.577,1.803-3.022,4.026l0,0c0.554,2.224,2.806,4.026,5.03,4.026H317.563z"/>
					<path fill="#B2CBEA" d="M320.896,355.235c2.224,0,3.577-1.803,3.023-4.027c-0.554-2.223-2.806-4.026-5.03-4.026H140.411
						c-2.224,0-3.577,1.803-3.023,4.026c0.554,2.224,2.807,4.027,5.03,4.027H320.896z"/>
					<path fill="#B2CBEA" d="M327.399,365.169c-0.554-2.223-2.807-4.026-5.03-4.026H143.892c-2.224,0-3.577,1.803-3.023,4.026
						c0.555,2.224,2.807,4.026,5.03,4.026h178.478C326.601,369.195,327.954,367.392,327.399,365.169z"/>
					<path fill="#B2CBEA" d="M219.896,320.141c0.697,2.795,3.527,5.06,6.322,5.06h19.907c2.795,0,4.496-2.266,3.799-5.06
						l-9.623-38.594c-0.697-2.795-3.527-5.06-6.322-5.06h-19.907c-2.795,0-4.496,2.266-3.799,5.06L219.896,320.141z"/>
					<path fill="#B2CBEA" d="M254.351,320.141c0.697,2.795,3.527,5.06,6.322,5.06h19.907c2.795,0,4.496-2.266,3.799-5.06
						l-9.622-38.594c-0.697-2.795-3.528-5.06-6.322-5.06h-19.907c-2.795,0-4.496,2.266-3.799,5.06L254.351,320.141z"/>
					<path fill="#B2CBEA" d="M288.162,320.141c0.697,2.795,3.527,5.06,6.322,5.06h19.907c2.795,0,4.496-2.266,3.799-5.06
						l-9.622-38.594c-0.697-2.795-3.527-5.06-6.322-5.06h-19.907c-2.795,0-4.496,2.266-3.799,5.06L288.162,320.141z"/>
				</g>
				<g>
					<path fill="#B2CBEA" d="M213.148,316.719l-7.916-31.75c-1.168-4.685-5.913-8.482-10.597-8.482H127.24
						c-4.685,0-7.535,3.797-6.367,8.482l7.916,31.75c1.168,4.685,5.912,8.482,10.597,8.482h67.395
						C211.466,325.201,214.316,321.404,213.148,316.719z"/>
					<g>
						<path fill="#729AD1" d="M193.785,288.665c1.062,0,1.714-0.869,1.449-1.931l0,0c-0.265-1.062-1.35-1.931-2.412-1.931H129.85
							c-1.062,0-1.714,0.869-1.449,1.931l0,0c0.265,1.062,1.35,1.931,2.412,1.931H193.785z"/>
						<path fill="#729AD1" d="M195.636,296.091c1.062,0,1.714-0.869,1.449-1.931l0,0c-0.265-1.062-1.35-1.931-2.412-1.931h-62.972
							c-1.062,0-1.714,0.869-1.449,1.931l0,0c0.265,1.062,1.35,1.931,2.412,1.931H195.636z"/>
						<path fill="#729AD1" d="M198.937,301.586c-0.265-1.062-1.35-1.931-2.412-1.931h-62.972c-1.062,0-1.714,0.869-1.449,1.931
							c0.265,1.062,1.35,1.931,2.412,1.931h62.972C198.55,303.517,199.202,302.648,198.937,301.586z"/>
						<path fill="#729AD1" d="M150.483,307.973h-14.857c-1.062,0-1.714,0.869-1.449,1.931c0.265,1.062,1.35,1.931,2.412,1.931
							h14.857c1.062,0,1.714-0.869,1.449-1.931C152.631,308.842,151.545,307.973,150.483,307.973z"/>
					</g>
				</g>
				<path fill="#B2CBEA" d="M475.726,401.491l-4.152-16.654c-0.612-2.457-3.101-4.449-5.558-4.449h-35.351
					c-2.457,0-3.952,1.992-3.34,4.449l4.152,16.654c0.613,2.457,3.101,4.449,5.559,4.449h35.351
					C474.844,405.94,476.339,403.949,475.726,401.491z"/>
				<g>
					<path fill="#729AD1" d="M465.57,386.776c0.557,0,0.899-0.456,0.76-1.013c-0.139-0.557-0.708-1.012-1.265-1.012h-33.031
						c-0.557,0-0.899,0.456-0.76,1.012c0.139,0.557,0.708,1.013,1.265,1.013H465.57z"/>
					<path fill="#729AD1" d="M466.541,390.671c0.557,0,0.899-0.456,0.76-1.013c-0.139-0.557-0.708-1.013-1.265-1.013h-33.031
						c-0.557,0-0.899,0.456-0.76,1.013c0.139,0.557,0.708,1.013,1.265,1.013H466.541z"/>
					<path fill="#729AD1" d="M468.272,393.554c-0.139-0.557-0.708-1.013-1.265-1.013h-33.031c-0.557,0-0.899,0.455-0.76,1.013
						c0.139,0.557,0.708,1.012,1.265,1.012h33.031C468.069,394.566,468.411,394.111,468.272,393.554z"/>
					<path fill="#729AD1" d="M442.856,396.904h-7.792c-0.557,0-0.9,0.456-0.76,1.013l0,0c0.139,0.557,0.708,1.013,1.265,1.013h7.792
						c0.557,0,0.899-0.456,0.76-1.013C443.983,397.359,443.413,396.904,442.856,396.904z"/>
				</g>
				<g>
					<g>
						<path fill="#F0A350" d="M230.595,389.305c0.839,0,1.349-0.68,1.14-1.519l0,0c-0.209-0.839-1.059-1.519-1.897-1.519h-67.321
							c-0.839,0-1.349,0.68-1.14,1.519l0,0c0.209,0.839,1.058,1.519,1.897,1.519H230.595z"/>
						<path fill="#F0A350" d="M231.852,394.347c0.839,0,1.349-0.68,1.14-1.519l0,0c-0.209-0.839-1.059-1.518-1.897-1.518h-67.321
							c-0.839,0-1.349,0.68-1.14,1.518l0,0c0.209,0.839,1.058,1.519,1.897,1.519H231.852z"/>
						<path fill="#F0A350" d="M232.408,396.575h-67.32c-0.839,0-1.349,0.68-1.14,1.519c0.209,0.839,1.058,1.518,1.897,1.518h67.321
							c0.839,0,1.349-0.68,1.14-1.518C234.096,397.255,233.247,396.575,232.408,396.575z"/>
						<path fill="#F0A350" d="M317.475,389.305c0.839,0,1.349-0.68,1.14-1.519l0,0c-0.209-0.839-1.059-1.519-1.897-1.519h-67.321
							c-0.839,0-1.349,0.68-1.14,1.519l0,0c0.209,0.839,1.059,1.519,1.897,1.519H317.475z"/>
						<path fill="#F0A350" d="M318.732,394.347c0.839,0,1.349-0.68,1.14-1.519l0,0c-0.209-0.839-1.059-1.518-1.897-1.518h-67.321
							c-0.839,0-1.349,0.68-1.14,1.518l0,0c0.209,0.839,1.059,1.519,1.897,1.519H318.732z"/>
						<path fill="#F0A350" d="M319.287,396.575h-67.321c-0.839,0-1.349,0.68-1.14,1.519c0.209,0.839,1.058,1.518,1.897,1.518h67.321
							c0.839,0,1.349-0.68,1.14-1.518C320.976,397.255,320.126,396.575,319.287,396.575z"/>
						<path fill="#F0A350" d="M401.681,389.305c0.839,0,1.349-0.68,1.14-1.519l0,0c-0.209-0.839-1.059-1.519-1.897-1.519h-67.321
							c-0.839,0-1.349,0.68-1.14,1.519l0,0c0.209,0.839,1.059,1.519,1.897,1.519H401.681z"/>
						<path fill="#F0A350" d="M402.938,394.347c0.839,0,1.349-0.68,1.14-1.519l0,0c-0.209-0.839-1.058-1.518-1.897-1.518H334.86
							c-0.839,0-1.349,0.68-1.14,1.518l0,0c0.209,0.839,1.059,1.519,1.897,1.519H402.938z"/>
						<path fill="#F0A350" d="M405.391,398.094c-0.209-0.839-1.059-1.519-1.897-1.519h-67.321c-0.839,0-1.349,0.68-1.14,1.519
							c0.209,0.839,1.059,1.518,1.897,1.518h67.32C405.09,399.613,405.6,398.933,405.391,398.094z"/>
					</g>
					<g>
						<path fill="#F0A350" d="M418.415,408.242H158.803c-2.293,0-4.622-1.858-5.192-4.141l-5.184-20.793
							c-0.295-1.183-0.081-2.353,0.587-3.208c0.656-0.839,1.66-1.301,2.827-1.301h259.612c2.293,0,4.622,1.858,5.192,4.141
							l5.184,20.793c0.295,1.183,0.081,2.353-0.587,3.208C420.587,407.78,419.583,408.242,418.415,408.242z M151.841,380.32
							c-0.689,0-1.267,0.254-1.627,0.716c-0.383,0.491-0.493,1.167-0.31,1.903l5.184,20.793c0.404,1.619,2.105,2.987,3.715,2.987
							h259.612c0.689,0,1.266-0.254,1.627-0.716c0.383-0.491,0.493-1.167,0.31-1.903l-5.184-20.793
							c-0.404-1.619-2.105-2.987-3.715-2.987H151.841z"/>
					</g>
				</g>
			</g>
		</g>
		<g>
			<path fill="#B2CBEA" d="M160.831,165.459c-0.041-0.292-0.311-0.495-0.603-0.455l-5.821,0.814
				c-0.208-1.849-1.252-3.583-2.976-4.584l-0.352-0.205c-1.8-1.046-3.929-1.05-5.684-0.208l-2.3-5.769
				c-0.109-0.274-0.421-0.407-0.694-0.298c-0.274,0.109-0.408,0.42-0.298,0.694l2.363,5.927c-0.373,0.269-0.721,0.579-1.029,0.936
				c-0.244,0.28-0.464,0.587-0.657,0.919l-0.64,1.101c-3.02-1.754-5.272-3.062-5.351-3.108c-0.255-0.148-0.582-0.061-0.73,0.194
				c-0.148,0.255-0.061,0.582,0.194,0.73c0.079,0.046,2.331,1.354,5.351,3.108l-0.363,0.625c-0.348,0.598-0.579,1.232-0.704,1.877
				l-7.316,1.023c-0.292,0.041-0.496,0.311-0.455,0.603c0.037,0.267,0.266,0.46,0.528,0.46c0.024,0,0.049-0.002,0.074-0.005
				l7.058-0.987c-0.021,2.118,1.063,4.193,3.015,5.327l0.352,0.205c1.875,1.089,4.107,1.053,5.901,0.103l2.509,6.292
				c0.083,0.209,0.284,0.336,0.496,0.336c0.066,0,0.133-0.012,0.198-0.038c0.274-0.109,0.408-0.42,0.298-0.694l-2.589-6.491
				c0.583-0.459,1.091-1.031,1.485-1.709l0.363-0.625c3.074,1.785,5.352,3.108,5.352,3.108c0.084,0.049,0.177,0.072,0.268,0.072
				c0.184,0,0.363-0.095,0.462-0.266c0.148-0.255,0.062-0.582-0.194-0.73c0,0-2.278-1.323-5.351-3.108l0.64-1.101
				c0.193-0.332,0.351-0.675,0.474-1.026c0.186-0.528,0.292-1.071,0.327-1.614l5.943-0.831
				C160.668,166.021,160.872,165.751,160.831,165.459z"/>
			<path fill="#E57970" d="M153.631,169.533l-1.539,2.65c-1.677,2.888-5.411,3.878-8.299,2.2l-0.352-0.205
				c-2.886-1.677-3.878-5.411-2.2-8.299l1.539-2.651c0.193-0.332,0.413-0.64,0.657-0.919l10.669,6.197
				C153.983,168.858,153.824,169.201,153.631,169.533z"/>
		</g>
		<g>
			<path fill="#B2CBEA" d="M38.794,235.203l-6.723-1.907c-0.008-0.742-0.152-1.493-0.449-2.219l-0.274-0.669l5.727-2.346
				c0.273-0.112,0.404-0.424,0.292-0.697c-0.112-0.273-0.423-0.404-0.697-0.292l-5.727,2.346l-0.483-1.179
				c-0.145-0.355-0.321-0.69-0.523-1.001c-0.305-0.469-0.671-0.885-1.08-1.244l2.965-5.217c0.146-0.257,0.056-0.583-0.201-0.728
				c-0.257-0.146-0.583-0.056-0.728,0.201l-2.905,5.11c-1.592-0.962-3.603-1.193-5.447-0.437l-0.377,0.155
				c-1.926,0.789-3.228,2.473-3.631,4.377l-5.975-1.695c-0.284-0.081-0.579,0.084-0.66,0.368c-0.08,0.284,0.084,0.579,0.368,0.659
				l6.138,1.741c-0.014,0.46,0.019,0.924,0.114,1.386c0.073,0.364,0.183,0.726,0.328,1.081l0.483,1.179l-5.727,2.346
				c-0.273,0.112-0.404,0.424-0.292,0.697c0.085,0.207,0.284,0.332,0.495,0.332c0.067,0,0.136-0.013,0.202-0.04l5.727-2.346
				l0.274,0.669c0.262,0.64,0.624,1.21,1.059,1.703l-3.651,6.423c-0.146,0.256-0.056,0.583,0.2,0.728
				c0.083,0.047,0.174,0.07,0.263,0.07c0.186,0,0.367-0.097,0.465-0.27l3.522-6.195c1.666,1.308,3.971,1.715,6.061,0.859
				l0.377-0.155c2.007-0.822,3.339-2.613,3.68-4.614l6.517,1.849c0.049,0.014,0.098,0.02,0.146,0.02
				c0.233,0,0.447-0.153,0.514-0.389C39.243,235.578,39.078,235.283,38.794,235.203z"/>
			<path fill="#E57970" d="M30.461,228.24l1.162,2.836c1.266,3.09-0.226,6.653-3.317,7.919l-0.377,0.155
				c-3.089,1.265-6.653-0.226-7.919-3.317l-1.162-2.836c-0.145-0.355-0.255-0.717-0.328-1.081l11.418-4.677
				C30.14,227.55,30.315,227.885,30.461,228.24z"/>
		</g>
		<g>
			<path fill="#618DC9" d="M106.237,427.104c-0.043,0.029-0.09,0.069-0.149,0.113c-2.24,1.715-17.463,12.098-51.663,7.5
				c-0.233,1.314-0.451,2.618-0.655,3.903c-0.102,0.645-0.204,1.286-0.298,1.922c-0.096,0.628-0.189,1.254-0.277,1.878l-0.006,0.033
				c-0.089,0.626-0.177,1.246-0.258,1.867c-0.085,0.621-0.165,1.239-0.243,1.857c-0.079,0.611-0.151,1.217-0.223,1.823l-0.005,0.03
				c-0.068,0.603-0.138,1.202-0.202,1.799c-0.067,0.6-0.127,1.197-0.187,1.795c-0.06,0.595-0.118,1.186-0.17,1.775
				c-0.054,0.585-0.105,1.171-0.153,1.754c-0.036,0.425-0.071,0.847-0.103,1.27c-0.029,0.348-0.054,0.697-0.076,1.044
				c-0.023,0.295-0.042,0.591-0.061,0.886c-0.011,0.154-0.022,0.309-0.029,0.464c-0.031,0.494-0.062,0.985-0.089,1.476
				c-0.03,0.525-0.057,1.05-0.083,1.573c-0.005,0.101-0.009,0.199-0.013,0.3c-0.016,0.391-0.035,0.779-0.05,1.164
				c-0.011,0.307-0.025,0.611-0.032,0.915c-0.034,0.98-0.058,1.944-0.074,2.903c-0.008,0.44-0.015,0.878-0.019,1.312
				c-0.005,0.516-0.008,1.025-0.007,1.532c-0.001,0.041,0,0.078-0.001,0.118c0.002,0.497,0.002,0.99,0.009,1.48
				c0.001,0.408,0.007,0.814,0.015,1.216c0.002,0.347,0.011,0.692,0.021,1.034c0.002,0.12,0.004,0.242,0.006,0.361
				c0.01,0.359,0.021,0.714,0.032,1.07c0.012,0.383,0.026,0.759,0.04,1.136c0.018,0.408,0.037,0.813,0.057,1.214
				c0.02,0.473,0.045,0.94,0.073,1.407c0.003,0.041,0.005,0.086,0.008,0.127c0.026,0.46,0.056,0.914,0.087,1.369
				c0.033,0.478,0.066,0.954,0.104,1.423c0.037,0.472,0.075,0.942,0.118,1.405c0.039,0.466,0.081,0.929,0.128,1.386
				c0.043,0.44,0.088,0.873,0.135,1.306c0.004,0.052,0.012,0.104,0.016,0.156c0.046,0.423,0.094,0.84,0.144,1.257
				c0.053,0.441,0.107,0.879,0.164,1.318c0.002,0.01,0.003,0.021,0.004,0.035c0.058,0.432,0.113,0.864,0.175,1.293
				c0.059,0.429,0.121,0.858,0.187,1.285c0.001,0.01,0.003,0.021,0.004,0.034c0.064,0.416,0.13,0.829,0.195,1.242
				c0.002,0.007,0.004,0.014,0.003,0.021c0.067,0.42,0.139,0.834,0.21,1.248c0.071,0.417,0.146,0.832,0.221,1.243
				c0.092,0.506,0.186,1.006,0.284,1.503c0.063,0.31,0.123,0.62,0.186,0.928c0.08,0.388,0.16,0.77,0.242,1.148
				c0.011,0.049,0.023,0.099,0.034,0.149c0.075,0.357,0.157,0.715,0.236,1.066c0.086,0.39,0.177,0.773,0.271,1.157
				c0.188,0.789,0.381,1.565,0.583,2.328c0.09,0.349,0.185,0.693,0.279,1.036c0.098,0.361,0.198,0.716,0.3,1.07
				c0.072,0.261,0.148,0.52,0.224,0.778c0.073,0.258,0.15,0.51,0.229,0.766c0.059,0.201,0.122,0.399,0.184,0.6
				c0.107,0.349,0.215,0.695,0.323,1.038c0.223,0.686,0.451,1.363,0.681,2.03c0.113,0.333,0.231,0.664,0.348,0.991
				c0.118,0.327,0.236,0.654,0.355,0.975c0.327,0.882,0.662,1.744,1.006,2.588c0.101,0.253,0.205,0.502,0.31,0.753
				c0.149,0.36,0.299,0.717,0.453,1.071c0.12,0.276,0.24,0.553,0.364,0.827c0.661,1.486,1.342,2.911,2.039,4.27
				c0.138,0.269,0.275,0.532,0.414,0.795c0.33,0.623,0.662,1.234,0.999,1.835c0.115,0.211,0.237,0.42,0.356,0.628
				c0.111,0.194,0.223,0.387,0.335,0.577c0.13,0.224,0.26,0.445,0.387,0.661c0.301,0.499,0.601,0.989,0.905,1.468
				c0.102,0.168,0.209,0.333,0.312,0.495c0.329,0.515,0.66,1.016,0.993,1.508c0.118,0.178,0.236,0.352,0.355,0.523
				c0.781,1.137,1.561,2.205,2.342,3.213c0.143,0.185,0.29,0.372,0.434,0.554c0.753,0.951,1.499,1.847,2.236,2.687
				c0.234,0.267,0.469,0.53,0.701,0.786c0.02,0.021,0.04,0.041,0.06,0.065c0.139,0.151,0.278,0.305,0.418,0.453
				c0.834,0.901,1.65,1.728,2.439,2.486c0.13,0.125,0.261,0.251,0.392,0.373c0.258,0.247,0.515,0.484,0.769,0.713
				c0.242,0.221,0.479,0.433,0.711,0.638c0.012,0.009,0.023,0.021,0.035,0.03c0.232,0.202,0.458,0.399,0.679,0.588
				c0.384,0.324,0.756,0.633,1.116,0.922c0.101,0.079,0.199,0.158,0.301,0.237c0.654,0.519,1.266,0.976,1.826,1.376
				c0.169,0.119,0.335,0.237,0.492,0.347c0.469,0.322,0.894,0.603,1.267,0.837c0.112,0.074,0.219,0.141,0.323,0.204
				c0.23,0.14,0.432,0.265,0.61,0.368c0.04,0.024,0.08,0.045,0.117,0.065c0.04,0.024,0.077,0.048,0.114,0.068
				c0.413,0.237,0.638,0.346,0.638,0.346c2.185-0.711,4.301-1.497,6.349-2.355c12.935-5.415,23.165-13.635,31.262-23.16
				c0.022-0.027,0.043-0.05,0.061-0.078c17.427-20.542,24.92-47.127,28.12-64.727c0.351-1.949,0.655-3.788,0.912-5.496
				C117.601,444.455,107.314,428.885,106.237,427.104z"/>
			<g>
				<path fill="#B2CBEA" d="M146.142,460.401c-2.918,16.046-9.749,40.282-25.637,59.01c-0.017,0.025-0.036,0.046-0.056,0.071
					c-7.381,8.684-16.708,16.178-28.5,21.115c-1.867,0.783-3.797,1.498-5.789,2.147c0,0-0.205-0.099-0.582-0.316
					c-0.034-0.018-0.067-0.04-0.103-0.062c-0.034-0.018-0.071-0.038-0.107-0.06c-0.163-0.094-0.347-0.208-0.556-0.336
					c-0.095-0.057-0.192-0.118-0.295-0.186c-0.34-0.213-0.728-0.469-1.155-0.763c-0.143-0.1-0.294-0.208-0.448-0.316
					c-0.511-0.365-1.068-0.781-1.665-1.254c-0.092-0.072-0.182-0.144-0.274-0.217c-0.328-0.263-0.667-0.545-1.017-0.84
					c-0.201-0.173-0.407-0.352-0.619-0.536c-0.011-0.008-0.021-0.02-0.032-0.028c-0.211-0.187-0.427-0.381-0.648-0.582
					c-0.232-0.209-0.466-0.425-0.701-0.65c-0.119-0.111-0.238-0.226-0.357-0.34c-0.719-0.69-1.463-1.444-2.223-2.266
					c-0.128-0.135-0.254-0.275-0.381-0.412c-0.018-0.022-0.036-0.041-0.054-0.059c-0.212-0.233-0.426-0.473-0.64-0.717
					c-0.671-0.765-1.351-1.582-2.038-2.449c-0.131-0.166-0.265-0.336-0.396-0.505c-0.712-0.918-1.423-1.893-2.135-2.929
					c-0.108-0.156-0.216-0.315-0.323-0.477c-0.304-0.448-0.605-0.905-0.905-1.375c-0.094-0.147-0.191-0.298-0.284-0.451
					c-0.278-0.438-0.551-0.883-0.825-1.339c-0.116-0.197-0.235-0.398-0.353-0.603c-0.102-0.173-0.204-0.35-0.305-0.526
					c-0.108-0.19-0.22-0.38-0.325-0.573c-0.307-0.548-0.61-1.104-0.91-1.673c-0.127-0.24-0.252-0.479-0.378-0.725
					c-0.635-1.239-1.257-2.538-1.859-3.892c-0.113-0.25-0.223-0.502-0.332-0.754c-0.14-0.323-0.277-0.648-0.413-0.977
					c-0.095-0.228-0.191-0.456-0.283-0.686c-0.314-0.769-0.618-1.555-0.917-2.359c-0.109-0.292-0.216-0.591-0.323-0.889
					c-0.107-0.298-0.214-0.599-0.318-0.903c-0.21-0.608-0.418-1.225-0.621-1.85c-0.099-0.312-0.197-0.627-0.294-0.946
					c-0.057-0.184-0.114-0.365-0.168-0.548c-0.073-0.233-0.143-0.462-0.209-0.698c-0.069-0.236-0.138-0.471-0.204-0.709
					c-0.094-0.324-0.184-0.647-0.274-0.976c-0.086-0.313-0.172-0.626-0.254-0.945c-0.185-0.696-0.361-1.404-0.532-2.123
					c-0.086-0.35-0.168-0.7-0.247-1.055c-0.073-0.32-0.147-0.646-0.216-0.971c-0.01-0.045-0.021-0.091-0.031-0.136
					c-0.074-0.345-0.148-0.693-0.221-1.047c-0.058-0.28-0.113-0.563-0.17-0.846c-0.089-0.453-0.174-0.908-0.258-1.37
					c-0.069-0.375-0.137-0.753-0.202-1.134c-0.065-0.377-0.131-0.755-0.192-1.138c0.001-0.006-0.001-0.012-0.003-0.019
					c-0.059-0.377-0.119-0.753-0.177-1.132c-0.001-0.013-0.002-0.022-0.004-0.032c-0.06-0.389-0.117-0.78-0.17-1.171
					c-0.057-0.392-0.107-0.785-0.16-1.179c-0.001-0.013-0.002-0.022-0.004-0.032c-0.052-0.4-0.101-0.799-0.149-1.202
					c-0.046-0.38-0.089-0.76-0.132-1.146c-0.004-0.047-0.011-0.095-0.015-0.142c-0.044-0.395-0.084-0.79-0.123-1.19
					c-0.043-0.417-0.081-0.839-0.117-1.264c-0.039-0.422-0.073-0.85-0.107-1.281c-0.035-0.428-0.065-0.861-0.095-1.297
					c-0.028-0.414-0.055-0.828-0.079-1.248c-0.003-0.038-0.005-0.078-0.007-0.116c-0.026-0.426-0.048-0.852-0.067-1.283
					c-0.018-0.366-0.035-0.735-0.052-1.107c-0.013-0.343-0.025-0.686-0.037-1.035c-0.01-0.324-0.02-0.648-0.029-0.976
					c-0.002-0.109-0.004-0.221-0.006-0.329c-0.009-0.311-0.017-0.626-0.019-0.942c-0.008-0.367-0.013-0.737-0.014-1.109
					c-0.006-0.447-0.006-0.897-0.008-1.349c0.001-0.037,0.001-0.071,0.001-0.108c0-0.462,0.003-0.926,0.007-1.397
					c0.003-0.396,0.01-0.795,0.017-1.196c0.015-0.874,0.037-1.754,0.068-2.647c0.007-0.278,0.019-0.554,0.029-0.835
					c0.014-0.351,0.031-0.704,0.045-1.061c0.004-0.092,0.008-0.182,0.012-0.274c0.024-0.476,0.048-0.955,0.075-1.434
					c0.025-0.448,0.053-0.896,0.081-1.346c0.007-0.141,0.017-0.282,0.027-0.423c0.017-0.27,0.035-0.539,0.056-0.808
					c0.02-0.316,0.043-0.634,0.069-0.951c0.029-0.385,0.061-0.77,0.094-1.158c0.043-0.532,0.09-1.065,0.139-1.599
					c0.047-0.537,0.101-1.076,0.155-1.618c0.055-0.545,0.11-1.09,0.171-1.636c0.058-0.544,0.122-1.091,0.184-1.64l0.005-0.027
					c0.065-0.552,0.131-1.105,0.203-1.662c0.071-0.564,0.144-1.127,0.221-1.692c0.074-0.566,0.154-1.131,0.235-1.703l0.005-0.03
					c0.081-0.568,0.165-1.139,0.252-1.712c0.086-0.58,0.179-1.164,0.272-1.752c0.186-1.172,0.385-2.361,0.598-3.559
					c31.179,4.193,45.058-5.274,47.1-6.837c0.054-0.04,0.097-0.075,0.136-0.102c0.981,1.624,10.36,15.818,41.701,22.95
					C146.739,456.948,146.462,458.625,146.142,460.401z"/>
				<path fill="#729AD1" d="M105.407,432.329L85.579,542.427c-0.205-0.117-0.463-0.269-0.767-0.457
					c-0.095-0.057-0.192-0.118-0.295-0.186c-0.34-0.213-0.728-0.469-1.155-0.763c-0.143-0.1-0.294-0.208-0.448-0.316
					c-0.511-0.365-1.068-0.781-1.665-1.254c-0.092-0.072-0.182-0.144-0.274-0.217c-0.328-0.263-0.667-0.545-1.017-0.84
					c-0.201-0.173-0.407-0.352-0.619-0.536c-0.011-0.008-0.021-0.02-0.032-0.028c-0.211-0.187-0.427-0.381-0.648-0.582
					c-0.232-0.209-0.466-0.425-0.701-0.65c-0.119-0.111-0.238-0.226-0.357-0.34c-0.719-0.69-1.463-1.444-2.223-2.266
					c-0.128-0.135-0.254-0.275-0.381-0.412c-0.018-0.022-0.036-0.041-0.054-0.059c-0.212-0.233-0.426-0.473-0.64-0.717
					c-0.671-0.765-1.351-1.582-2.038-2.449c-0.131-0.166-0.265-0.336-0.396-0.505c-0.712-0.918-1.423-1.893-2.135-2.929
					c-0.108-0.156-0.216-0.315-0.323-0.477c-0.304-0.448-0.605-0.905-0.905-1.375c-0.094-0.147-0.191-0.298-0.284-0.451
					c-0.278-0.438-0.551-0.883-0.825-1.339c-0.116-0.197-0.235-0.398-0.353-0.603c-0.102-0.173-0.204-0.35-0.305-0.526
					c-0.108-0.19-0.22-0.38-0.325-0.573c-0.307-0.548-0.61-1.104-0.91-1.673c-0.127-0.24-0.252-0.479-0.378-0.725
					c-0.635-1.239-1.257-2.538-1.859-3.892c-0.113-0.25-0.223-0.502-0.332-0.754c-0.14-0.323-0.277-0.648-0.413-0.977
					c-0.095-0.228-0.191-0.456-0.283-0.686c-0.314-0.769-0.618-1.555-0.917-2.359c-0.109-0.292-0.216-0.591-0.323-0.889
					c-0.107-0.298-0.214-0.599-0.318-0.903c-0.21-0.608-0.418-1.225-0.621-1.85c-0.099-0.312-0.197-0.627-0.294-0.946
					c-0.057-0.184-0.114-0.365-0.168-0.548c-0.073-0.233-0.143-0.462-0.209-0.698c-0.069-0.236-0.138-0.471-0.204-0.709
					c-0.094-0.324-0.184-0.647-0.274-0.976c-0.086-0.313-0.172-0.626-0.254-0.945c-0.185-0.696-0.361-1.404-0.532-2.123
					c-0.086-0.35-0.168-0.7-0.247-1.055c-0.073-0.32-0.147-0.646-0.216-0.971c-0.01-0.045-0.021-0.091-0.031-0.136
					c-0.074-0.345-0.148-0.693-0.221-1.047c-0.058-0.28-0.113-0.563-0.17-0.846c-0.089-0.453-0.174-0.908-0.258-1.37
					c-0.069-0.375-0.137-0.753-0.202-1.134c-0.065-0.377-0.131-0.755-0.192-1.138c0.001-0.006-0.001-0.012-0.003-0.019
					c-0.059-0.377-0.119-0.753-0.177-1.132c-0.001-0.013-0.002-0.022-0.004-0.032c-0.06-0.389-0.117-0.78-0.17-1.171
					c-0.057-0.392-0.107-0.785-0.16-1.179c-0.001-0.013-0.002-0.022-0.004-0.032c-0.052-0.4-0.101-0.799-0.149-1.202
					c-0.046-0.38-0.089-0.76-0.132-1.146c-0.004-0.047-0.011-0.095-0.015-0.142c-0.044-0.395-0.084-0.79-0.123-1.19
					c-0.043-0.417-0.081-0.839-0.117-1.264c-0.039-0.422-0.073-0.85-0.107-1.281c-0.035-0.428-0.065-0.861-0.095-1.297
					c-0.028-0.414-0.055-0.828-0.079-1.248c-0.003-0.038-0.005-0.078-0.007-0.116c-0.026-0.426-0.048-0.852-0.067-1.283
					c-0.018-0.366-0.035-0.735-0.052-1.107c-0.013-0.343-0.025-0.686-0.037-1.035c-0.01-0.324-0.02-0.648-0.029-0.976
					c-0.002-0.109-0.004-0.221-0.006-0.329c-0.009-0.311-0.017-0.626-0.019-0.942c-0.008-0.367-0.013-0.737-0.014-1.109
					c-0.006-0.447-0.006-0.897-0.008-1.349c0.001-0.037,0.001-0.071,0.001-0.108c0-0.462,0.003-0.926,0.007-1.397
					c0.003-0.396,0.01-0.795,0.017-1.196c0.015-0.874,0.037-1.754,0.068-2.647c0.007-0.278,0.019-0.554,0.029-0.835
					c0.014-0.351,0.031-0.704,0.045-1.061c0.004-0.092,0.008-0.182,0.012-0.274c0.024-0.476,0.048-0.955,0.075-1.434
					c0.025-0.448,0.053-0.896,0.081-1.346c0.007-0.141,0.017-0.282,0.027-0.423c0.017-0.27,0.035-0.539,0.056-0.808
					c0.02-0.316,0.043-0.634,0.069-0.951c0.029-0.385,0.061-0.77,0.094-1.158c0.043-0.532,0.09-1.065,0.139-1.599
					c0.047-0.537,0.101-1.076,0.155-1.618c0.055-0.545,0.11-1.09,0.171-1.636c0.058-0.544,0.122-1.091,0.184-1.64l0.005-0.027
					c0.065-0.552,0.131-1.105,0.203-1.662c0.071-0.564,0.144-1.127,0.221-1.692c0.074-0.566,0.154-1.131,0.235-1.703l0.005-0.03
					c0.081-0.568,0.165-1.139,0.252-1.712c0.086-0.58,0.179-1.164,0.272-1.752c0.186-1.172,0.385-2.361,0.598-3.559
					C91.966,443.945,105.407,432.329,105.407,432.329z"/>
			</g>
		</g>
	</g>
</g>
</svg>
