<svg width="310" height="310" viewBox="0 0 310 310" fill="none" xmlns="http://www.w3.org/2000/svg">
<path d="M310 155C310 240.604 240.604 310 155 310C69.3959 310 0 240.604 0 155C0 69.3959 69.3959 0 155 0C240.604 0 310 69.3959 310 155ZM38.75 155C38.75 219.203 90.7969 271.25 155 271.25C219.203 271.25 271.25 219.203 271.25 155C271.25 90.7969 219.203 38.75 155 38.75C90.7969 38.75 38.75 90.7969 38.75 155Z" fill="#AFAFAF"/>
<path d="M155 0C191.46 4.34778e-07 226.753 12.8526 254.674 36.2983C282.596 59.7441 301.358 92.2821 307.664 128.192C313.97 164.103 307.415 201.087 289.152 232.642C270.888 264.198 242.086 288.306 207.807 300.727C173.529 313.149 135.968 313.089 101.73 300.558C67.4907 288.028 38.7649 263.829 20.602 232.215C2.43915 200.602 -3.99812 163.597 2.42186 127.707C8.84184 91.8169 27.7081 59.3387 55.704 35.9819L80.528 65.7364C59.5311 83.254 45.3814 107.613 40.5664 134.53C35.7514 161.448 40.5794 189.201 54.2015 212.911C67.8237 236.622 89.368 254.771 115.047 264.169C140.726 273.567 168.896 273.612 194.605 264.295C220.314 254.979 241.916 236.898 255.614 213.232C269.311 189.565 274.227 161.827 269.498 134.894C264.769 107.962 250.697 83.5581 229.756 65.9737C208.814 48.3894 182.345 38.75 155 38.75V0Z" fill="#424242"/>
<path d="M195.592 5.40952C220.991 12.3017 244.218 25.5478 263.082 43.8995C281.946 62.2511 295.827 85.1038 303.416 110.304C311.005 135.504 312.052 162.222 306.46 187.938C300.867 213.655 288.818 237.525 271.449 257.297C254.079 277.069 231.961 292.093 207.18 300.953C182.398 309.813 155.768 312.217 129.8 307.938C103.832 303.659 79.3813 292.838 58.752 276.496C38.1227 260.154 21.9943 238.828 11.8867 214.528L47.6651 199.646C55.2457 217.871 67.342 233.865 82.814 246.122C98.2859 258.379 116.624 266.494 136.1 269.703C155.576 272.912 175.548 271.11 194.135 264.465C212.721 257.82 229.31 246.552 242.337 231.723C255.364 216.894 264.4 198.992 268.595 179.704C272.789 160.416 272.004 140.378 266.312 121.478C260.62 102.578 250.209 85.4383 236.061 71.6746C221.913 57.9109 204.493 47.9763 185.444 42.8071L195.592 5.40952Z" fill="#B1CAFD"/>
<path d="M155 0C177.531 2.68676e-07 199.79 4.91188 220.229 14.3935C240.667 23.8751 258.793 37.6985 273.343 54.9008C287.894 72.1031 298.519 92.2707 304.479 113.999C310.439 135.727 311.59 158.493 307.853 180.712C304.115 202.93 295.579 224.067 282.838 242.649C270.098 261.232 253.459 276.813 234.081 288.308C214.704 299.804 193.053 306.936 170.637 309.209C148.222 311.482 125.58 308.841 104.289 301.47L116.967 264.852C132.935 270.381 149.916 272.362 166.728 270.657C183.54 268.952 199.778 263.603 214.311 254.981C228.844 246.36 241.323 234.674 250.879 220.737C260.434 206.8 266.836 190.948 269.639 174.284C272.443 157.62 271.579 140.545 267.109 124.249C262.639 107.953 254.67 92.8273 243.758 79.9256C232.845 67.0239 219.251 56.6563 203.922 49.5451C188.593 42.4339 171.898 38.75 155 38.75V0Z" fill="#4F82EC"/>
</svg>
