<?xml version="1.0" encoding="utf-8"?>
<!-- Generator: Adobe Illustrator 17.0.0, SVG Export Plug-In . SVG Version: 6.00 Build 0)  -->
<!DOCTYPE svg PUBLIC "-//W3C//DTD SVG 1.1//EN" "http://www.w3.org/Graphics/SVG/1.1/DTD/svg11.dtd">
<svg version="1.1" id="Layer_1" xmlns="http://www.w3.org/2000/svg" xmlns:xlink="http://www.w3.org/1999/xlink" x="0px" y="0px"
	 width="14.4px" height="16px" viewBox="2.8 2 14.4 16" enable-background="new 2.8 2 14.4 16" xml:space="preserve">
<path d="M14,3.6h1.6c0.884,0,1.6,0.716,1.6,1.6v11.2c0,0.884-0.716,1.6-1.6,1.6H4.4c-0.884,0-1.6-0.716-1.6-1.6V5.2
	c0-0.88,0.72-1.6,1.6-1.6H6V2h1.6v1.6h4.8V2H14V3.6z M4.4,6.8v9.6h11.2V6.8H4.4z M9.2,10.8V9.2h1.6v1.6h1.6v1.6h-1.6V14H9.2v-1.6
	H7.6v-1.6H9.2z"/>
</svg>
