<svg width="15" height="15" viewBox="0 0 15 15" fill="none" xmlns="http://www.w3.org/2000/svg">
<path d="M7.49958 0.300003C3.52233 0.300003 0.298828 3.5235 0.298828 7.5C0.29873 8.44565 0.484915 9.38205 0.846752 10.2557C1.20859 11.1294 1.73899 11.9233 2.40766 12.5919C3.07633 13.2606 3.87017 13.791 4.74385 14.1528C5.61753 14.5147 6.55393 14.7009 7.49958 14.7008C11.4753 14.7008 14.6996 11.4773 14.6996 7.5C14.6996 3.5235 11.4753 0.300003 7.49958 0.300003ZM1.79883 7.5C1.79904 6.42072 2.10566 5.36368 2.68304 4.45182C3.26041 3.53996 4.08481 2.81077 5.06034 2.34905C6.03587 1.88732 7.12244 1.71205 8.19368 1.84362C9.26491 1.97519 10.2768 2.40819 11.1116 3.09225L3.09108 11.1128C2.25402 10.095 1.79715 8.81775 1.79883 7.5ZM7.49883 13.1993C6.1816 13.2013 4.90477 12.7447 3.88758 11.9078L11.9081 3.888C12.5918 4.72293 13.0244 5.73479 13.1557 6.80592C13.2869 7.87704 13.1114 8.96343 12.6496 9.93874C12.1877 10.9141 11.4585 11.7382 10.5467 12.3154C9.63489 12.8926 8.57797 13.1991 7.49883 13.1993Z" fill="#979797"/>
</svg>
