<svg width="44" height="44" viewBox="0 0 44 44" fill="none" xmlns="http://www.w3.org/2000/svg">
<path d="M22 2.75C11.3695 2.75 2.75 11.3695 2.75 22C2.75 32.6305 11.3695 41.25 22 41.25C32.6305 41.25 41.25 32.6305 41.25 22C41.25 11.3695 32.6305 2.75 22 2.75ZM34.3965 32.0891L11.9324 9.625C11.0859 10.3125 10.3125 11.0859 9.625 11.9324L32.0891 34.3965C29.3391 36.6395 25.8242 37.9844 22 37.9844C13.1742 37.9844 6.01562 30.8258 6.01562 22C6.01562 13.1742 13.1742 6.01562 22 6.01562C30.8258 6.01562 37.9844 13.1742 37.9844 22C37.9844 25.8242 36.6395 29.3391 34.3965 32.0891Z" fill="#333333"/>
<path d="M22 6.01562C13.1742 6.01562 6.01562 13.1742 6.01562 22C6.01562 30.8258 13.1742 37.9844 22 37.9844C25.8242 37.9844 29.3391 36.6395 32.0891 34.3965L9.625 11.9324C10.3125 11.0859 11.0859 10.3125 11.9324 9.625L34.3965 32.0891C36.6395 29.3391 37.9844 25.8242 37.9844 22C37.9844 13.1742 30.8258 6.01562 22 6.01562Z" fill="white"/>
</svg>
