<?xml version="1.0" encoding="utf-8"?>
<!-- Generator: Adobe Illustrator 17.0.0, SVG Export Plug-In . SVG Version: 6.00 Build 0)  -->
<!DOCTYPE svg PUBLIC "-//W3C//DTD SVG 1.1//EN" "http://www.w3.org/Graphics/SVG/1.1/DTD/svg11.dtd">
<svg version="1.1" id="Layer_1" xmlns="http://www.w3.org/2000/svg" xmlns:xlink="http://www.w3.org/1999/xlink" x="0px" y="0px"
	 width="16px" height="21.161px" viewBox="4 1.419 16 21.161" enable-background="new 4 1.419 16 21.161" xml:space="preserve">
<path fill="#939598" d="M16.645,22.581h-9.29c-0.193,0.001-0.38-0.071-0.523-0.201c-0.143-0.13-0.233-0.309-0.251-0.501L5.032,5.363
	C5.021,5.255,5.034,5.147,5.07,5.045c0.036-0.102,0.093-0.194,0.169-0.271c0.071-0.081,0.158-0.146,0.256-0.191
	c0.098-0.045,0.204-0.068,0.312-0.068h12.387c0.109,0.001,0.216,0.025,0.316,0.069c0.099,0.044,0.189,0.109,0.262,0.189
	c0.072,0.079,0.127,0.172,0.16,0.273c0.034,0.101,0.046,0.209,0.036,0.315l-1.548,16.516c-0.018,0.193-0.108,0.371-0.251,0.501
	C17.025,22.51,16.839,22.581,16.645,22.581z M8.057,21.032h7.886l1.404-14.968H6.653L8.057,21.032z"/>
<path fill="#939598" d="M19.226,6.065H4.774c-0.205,0-0.402-0.082-0.547-0.227C4.082,5.693,4,5.496,4,5.29
	c0-0.205,0.082-0.402,0.227-0.547c0.145-0.145,0.342-0.227,0.547-0.227h14.452c0.205,0,0.402,0.082,0.547,0.227
	C19.918,4.888,20,5.085,20,5.29c0,0.205-0.082,0.402-0.227,0.547C19.628,5.983,19.431,6.065,19.226,6.065z"/>
<path fill="#939598" d="M14.581,2.968H9.419c-0.205,0-0.402-0.082-0.547-0.227C8.727,2.596,8.645,2.399,8.645,2.194
	s0.082-0.402,0.227-0.547c0.145-0.145,0.342-0.227,0.547-0.227h5.161c0.205,0,0.402,0.082,0.547,0.227
	c0.145,0.145,0.227,0.342,0.227,0.547s-0.082,0.402-0.227,0.547C14.983,2.886,14.786,2.968,14.581,2.968z"/>
<path fill="#939598" d="M10.194,17.646c-0.204-0.003-0.4-0.085-0.544-0.23c-0.145-0.145-0.227-0.34-0.23-0.545v-6.648
	c0-0.205,0.082-0.402,0.227-0.547C9.791,9.532,9.988,9.45,10.194,9.45s0.402,0.082,0.547,0.227c0.145,0.145,0.227,0.342,0.227,0.547
	v6.648c-0.003,0.204-0.085,0.4-0.23,0.545C10.593,17.561,10.398,17.644,10.194,17.646z"/>
<path fill="#939598" d="M13.806,17.646c-0.204-0.003-0.4-0.085-0.545-0.23c-0.145-0.145-0.227-0.34-0.23-0.545v-6.648
	c0-0.205,0.082-0.402,0.227-0.547c0.145-0.145,0.342-0.227,0.547-0.227s0.402,0.082,0.547,0.227
	c0.145,0.145,0.227,0.342,0.227,0.547v6.648c-0.003,0.204-0.085,0.4-0.23,0.545C14.206,17.561,14.011,17.644,13.806,17.646z"/>
</svg>
