<?xml version="1.0" encoding="utf-8"?>
<!-- Generator: Adobe Illustrator 17.0.0, SVG Export Plug-In . SVG Version: 6.00 Build 0)  -->
<!DOCTYPE svg PUBLIC "-//W3C//DTD SVG 1.1//EN" "http://www.w3.org/Graphics/SVG/1.1/DTD/svg11.dtd">
<svg version="1.1" id="Layer_1" xmlns="http://www.w3.org/2000/svg" xmlns:xlink="http://www.w3.org/1999/xlink" x="0px" y="0px"
	 width="21px" height="21px" viewBox="245.5 245.777 21 21" enable-background="new 245.5 245.777 21 21" xml:space="preserve">
<rect x="247.077" y="247.354" fill="#DCDDDE" width="17.847" height="17.847"/>
<path d="M258.857,255.563h-2.143v-2.143c0-0.263-0.213-0.476-0.476-0.476h-0.476c-0.263,0-0.476,0.213-0.476,0.476v2.143h-2.143
	c-0.263,0-0.476,0.213-0.476,0.476v0.476c0,0.263,0.213,0.476,0.476,0.476h2.143v2.143c0,0.263,0.213,0.476,0.476,0.476h0.476
	c0.263,0,0.476-0.213,0.476-0.476v-2.143h2.143c0.263,0,0.476-0.213,0.476-0.476v-0.476
	C259.333,255.776,259.12,255.563,258.857,255.563z"/>
<rect x="246" y="246.277" fill="none" stroke="#DCDDDE" stroke-miterlimit="10" width="20" height="20"/>
</svg>
