<?xml version="1.0" encoding="utf-8"?>
<!-- Generator: Adobe Illustrator 17.0.0, SVG Export Plug-In . SVG Version: 6.00 Build 0)  -->
<!DOCTYPE svg PUBLIC "-//W3C//DTD SVG 1.1//EN" "http://www.w3.org/Graphics/SVG/1.1/DTD/svg11.dtd">
<svg version="1.1" id="Layer_1" xmlns="http://www.w3.org/2000/svg" xmlns:xlink="http://www.w3.org/1999/xlink" x="0px" y="0px"
	 width="60px" height="32.258px" viewBox="16.5 8.871 60 32.258" enable-background="new 16.5 8.871 60 32.258"
	 xml:space="preserve">
<rect x="16.5" y="8.871" fill="#E6E7E8" width="60" height="32.258"/>
<path fill="#030D45" d="M36.088,19.137c0.784-0.784,2.055-0.784,2.84,0l0.855,0.855c0.784,0.784,0.784,2.056,0,2.84l-8.032,8.032
	c-0.377,0.377-0.887,0.588-1.42,0.588h-2.316c-0.302,0-0.548-0.245-0.548-0.548v-2.316c0-0.533,0.212-1.043,0.588-1.42
	L36.088,19.137z M38.153,19.911c-0.356-0.356-0.934-0.356-1.291,0l-1.501,1.501l2.146,2.146l1.501-1.501
	c0.356-0.356,0.356-0.934,0-1.291L38.153,19.911z M36.733,24.332l-2.146-2.146l-5.757,5.757c-0.171,0.171-0.267,0.403-0.267,0.645
	v1.768h1.768c0.242,0,0.474-0.096,0.645-0.267L36.733,24.332z"/>
<path fill="#373737" d="M51.78,28.204v0.989h-4.858v-0.989H51.78z M47.168,20.02v9.173h-1.216V20.02H47.168z M51.137,23.964v0.989
	h-4.215v-0.989H51.137z M51.717,20.02v0.995h-4.795V20.02H51.717z M57.28,27.87v-8.354h1.172v9.677h-1.071L57.28,27.87z
	 M52.693,25.861v-0.132c0-0.521,0.063-0.993,0.189-1.418c0.13-0.428,0.313-0.796,0.548-1.103c0.239-0.307,0.523-0.542,0.851-0.706
	c0.332-0.168,0.701-0.252,1.109-0.252c0.428,0,0.802,0.076,1.121,0.227c0.323,0.147,0.596,0.363,0.819,0.649
	c0.227,0.281,0.405,0.622,0.536,1.021c0.13,0.399,0.221,0.851,0.271,1.355v0.58c-0.046,0.5-0.137,0.949-0.271,1.348
	c-0.13,0.399-0.309,0.739-0.536,1.021c-0.223,0.281-0.496,0.498-0.819,0.649c-0.323,0.147-0.701,0.221-1.134,0.221
	c-0.399,0-0.764-0.086-1.096-0.258c-0.328-0.172-0.611-0.414-0.851-0.725c-0.235-0.311-0.418-0.676-0.548-1.096
	C52.756,26.816,52.693,26.356,52.693,25.861z M53.865,25.728v0.132c0,0.34,0.034,0.659,0.101,0.958
	c0.071,0.298,0.181,0.561,0.328,0.788c0.147,0.227,0.334,0.405,0.561,0.535c0.227,0.126,0.498,0.189,0.813,0.189
	c0.386,0,0.704-0.082,0.951-0.246c0.252-0.164,0.454-0.38,0.605-0.649s0.269-0.561,0.353-0.876v-1.518
	c-0.05-0.231-0.124-0.454-0.221-0.668c-0.092-0.218-0.214-0.412-0.365-0.58c-0.147-0.172-0.33-0.309-0.548-0.41
	c-0.214-0.101-0.468-0.151-0.762-0.151c-0.319,0-0.594,0.067-0.825,0.202c-0.227,0.13-0.414,0.311-0.561,0.542
	c-0.147,0.227-0.256,0.491-0.328,0.794C53.899,25.069,53.865,25.388,53.865,25.728z M61.533,22.377v6.817h-1.172v-6.817H61.533z
	 M60.273,20.568c0-0.189,0.057-0.349,0.17-0.479c0.118-0.13,0.29-0.195,0.517-0.195c0.223,0,0.393,0.065,0.51,0.195
	c0.122,0.13,0.183,0.29,0.183,0.479c0,0.181-0.061,0.336-0.183,0.466c-0.118,0.126-0.288,0.189-0.51,0.189
	c-0.227,0-0.399-0.063-0.517-0.189C60.329,20.904,60.273,20.749,60.273,20.568z M66.258,22.377v0.895h-3.686v-0.895H66.258z
	 M63.82,20.719h1.166v6.786c0,0.231,0.036,0.405,0.107,0.523c0.071,0.118,0.164,0.195,0.277,0.233
	c0.113,0.038,0.235,0.057,0.365,0.057c0.097,0,0.197-0.008,0.302-0.025c0.109-0.021,0.191-0.038,0.246-0.05l0.006,0.951
	c-0.092,0.029-0.214,0.057-0.365,0.082c-0.147,0.029-0.325,0.044-0.536,0.044c-0.286,0-0.548-0.057-0.788-0.17
	c-0.239-0.113-0.431-0.302-0.573-0.567c-0.139-0.269-0.208-0.63-0.208-1.084V20.719z"/>
</svg>
