<?xml version="1.0" encoding="utf-8"?>
<!-- Generator: Adobe Illustrator 17.0.0, SVG Export Plug-In . SVG Version: 6.00 Build 0)  -->
<!DOCTYPE svg PUBLIC "-//W3C//DTD SVG 1.1//EN" "http://www.w3.org/Graphics/SVG/1.1/DTD/svg11.dtd">
<svg version="1.1" id="Layer_1" xmlns="http://www.w3.org/2000/svg" xmlns:xlink="http://www.w3.org/1999/xlink" x="0px" y="0px"
	 width="24px" height="24px" viewBox="0 0 24 24" enable-background="new 0 0 24 24" xml:space="preserve">
<g>
	<path fill="none" d="M0,0h24v24H0V0z"/>
	<path fill="#4F82EC" d="M16.626,3.132L9.29,10.466l0.008,4.247l4.238-0.007l7.331-7.332C21.613,8.802,22.002,10.389,22,12
		c0,5.523-4.477,10-10,10S2,17.523,2,12S6.477,2,12,2C13.669,2,15.242,2.409,16.626,3.132z M20.486,2.101l1.413,1.414l-9.192,9.192
		l-1.412,0.003l-0.002-1.417L20.486,2.101L20.486,2.101z"/>
</g>
</svg>
