<?xml version="1.0" encoding="utf-8"?>
<!-- Generator: Adobe Illustrator 17.0.0, SVG Export Plug-In . SVG Version: 6.00 Build 0)  -->
<!DOCTYPE svg PUBLIC "-//W3C//DTD SVG 1.1//EN" "http://www.w3.org/Graphics/SVG/1.1/DTD/svg11.dtd">
<svg version="1.1" id="Layer_1" xmlns="http://www.w3.org/2000/svg" xmlns:xlink="http://www.w3.org/1999/xlink" x="0px" y="0px"
	 width="192.443px" height="30px" viewBox="-25.852 -4.03 192.443 30" enable-background="new -25.852 -4.03 192.443 30"
	 xml:space="preserve">
<g>
	<g>
		<path fill="#010101" d="M21.465,12.295c-0.112,1.552-0.685,2.773-1.719,3.666c-1.034,0.892-2.396,1.337-4.086,1.337
			c-1.849,0-3.304-0.622-4.363-1.866s-1.59-2.954-1.59-5.126V9.422c0-1.387,0.245-2.609,0.733-3.666
			c0.49-1.057,1.187-1.866,2.095-2.431c0.908-0.565,1.962-0.846,3.164-0.846c1.664,0,3.004,0.446,4.021,1.337
			s1.605,2.143,1.764,3.755h-2.973c-0.074-0.931-0.332-1.607-0.778-2.026c-0.446-0.42-1.124-0.629-2.036-0.629
			c-0.99,0-1.732,0.356-2.223,1.065c-0.492,0.71-0.744,1.812-0.758,3.304v1.09c0,1.559,0.237,2.698,0.708,3.417
			c0.472,0.719,1.217,1.08,2.234,1.08c0.918,0,1.604-0.209,2.055-0.629c0.453-0.42,0.711-1.069,0.778-1.947h2.97v0H21.465z"/>
		<path fill="#010101" d="M26.576,17.099h-2.971V2.676h2.973L26.576,17.099L26.576,17.099z"/>
		<path fill="#010101" d="M34.669,11.819h-2.368v5.279h-2.973V2.676h5.359c1.704,0,3.018,0.38,3.942,1.139
			c0.924,0.759,1.387,1.832,1.387,3.219c0,0.985-0.213,1.804-0.639,2.461c-0.427,0.658-1.072,1.18-1.936,1.57l3.12,5.895v0.138
			h-3.19L34.669,11.819z M32.303,9.411H34.7c0.747,0,1.324-0.19,1.734-0.569c0.41-0.38,0.614-0.902,0.614-1.571
			c0-0.68-0.193-1.216-0.58-1.605c-0.386-0.39-0.979-0.585-1.778-0.585h-2.387V9.411L32.303,9.411z"/>
		<path fill="#010101" d="M53.599,12.295c-0.112,1.552-0.685,2.773-1.719,3.666c-1.034,0.892-2.396,1.337-4.086,1.337
			c-1.849,0-3.304-0.622-4.363-1.866s-1.59-2.954-1.59-5.126V9.422c0-1.387,0.245-2.609,0.733-3.666
			c0.49-1.057,1.187-1.866,2.095-2.431s1.962-0.846,3.164-0.846c1.664,0,3.004,0.446,4.021,1.337
			c1.017,0.892,1.605,2.143,1.764,3.755h-2.973c-0.074-0.931-0.332-1.607-0.778-2.026c-0.446-0.42-1.124-0.629-2.036-0.629
			c-0.99,0-1.732,0.356-2.223,1.065c-0.492,0.71-0.744,1.812-0.758,3.304v1.09c0,1.559,0.237,2.698,0.708,3.417
			c0.472,0.719,1.217,1.08,2.234,1.08c0.918,0,1.604-0.209,2.055-0.629c0.453-0.42,0.711-1.069,0.778-1.947h2.97v0H53.599z"/>
		<path fill="#010101" d="M58.522,14.711h6.31v2.387H55.55V2.676h2.973v12.036H58.522z"/>
		<path fill="#010101" d="M75.213,10.848h-5.706v3.863h6.696v2.387h-9.669V2.676h9.648v2.407h-6.677V8.52h5.706L75.213,10.848
			L75.213,10.848z"/>
		<path fill="#010101" d="M85.426,13.315c0-0.561-0.198-0.991-0.595-1.292s-1.109-0.618-2.14-0.952
			c-1.03-0.334-1.846-0.662-2.446-0.986c-1.638-0.886-2.457-2.077-2.457-3.576c0-0.779,0.22-1.474,0.659-2.085
			c0.439-0.611,1.071-1.087,1.891-1.432c0.822-0.343,1.745-0.515,2.769-0.515c1.03,0,1.947,0.187,2.754,0.559
			c0.805,0.373,1.432,0.9,1.877,1.581s0.669,1.452,0.669,2.318h-2.971c0-0.66-0.208-1.173-0.624-1.541
			c-0.416-0.366-1-0.55-1.753-0.55c-0.726,0-1.291,0.153-1.694,0.461c-0.403,0.308-0.604,0.711-0.604,1.214
			c0,0.469,0.237,0.861,0.708,1.179c0.472,0.317,1.168,0.614,2.085,0.892c1.69,0.509,2.922,1.139,3.695,1.892
			c0.773,0.753,1.16,1.69,1.16,2.813c0,1.248-0.472,2.227-1.417,2.937c-0.945,0.71-2.215,1.065-3.814,1.065
			c-1.109,0-2.119-0.202-3.031-0.61c-0.912-0.407-1.607-0.963-2.085-1.67c-0.479-0.707-0.718-1.525-0.718-2.457h2.981
			c0,1.592,0.952,2.387,2.854,2.387c0.707,0,1.258-0.144,1.655-0.431S85.426,13.829,85.426,13.315z"/>
		<path fill="#010101" d="M102.246,10.214c0,1.347-0.217,2.517-0.654,3.511c-0.435,0.994-1.041,1.791-1.813,2.393l2.397,1.883
			l-1.891,1.675l-3.071-2.467c-0.35,0.059-0.712,0.089-1.09,0.089c-1.195,0-2.262-0.287-3.2-0.861
			c-0.938-0.574-1.664-1.396-2.18-2.461s-0.775-2.293-0.782-3.68V9.582c0-1.421,0.257-2.67,0.768-3.749
			c0.511-1.08,1.235-1.909,2.169-2.487c0.935-0.577,2.003-0.867,3.205-0.867s2.27,0.289,3.205,0.867
			c0.935,0.578,1.657,1.406,2.169,2.487c0.511,1.08,0.768,2.326,0.768,3.74v0.641H102.246z M99.235,9.56
			c0-1.512-0.271-2.661-0.812-3.447c-0.541-0.785-1.314-1.179-2.318-1.179c-0.997,0-1.767,0.388-2.308,1.164
			s-0.816,1.913-0.822,3.413v0.704c0,1.473,0.271,2.614,0.812,3.427c0.541,0.812,1.321,1.218,2.338,1.218
			c0.997,0,1.764-0.391,2.299-1.173c0.535-0.782,0.805-1.923,0.812-3.423V9.56H99.235z"/>
		<path fill="#010101" d="M115.341,2.676v9.499c0,1.579-0.494,2.826-1.481,3.744c-0.987,0.918-2.337,1.377-4.046,1.377
			c-1.683,0-3.022-0.446-4.012-1.337c-0.99-0.892-1.496-2.117-1.515-3.675V2.676h2.973v9.52c0,0.945,0.227,1.633,0.678,2.066
			c0.453,0.432,1.077,0.649,1.877,0.649c1.671,0,2.52-0.878,2.546-2.635V2.677h2.979V2.676z"/>
		<path fill="#010101" d="M125.703,14.127h-5.21l-0.99,2.973h-3.16l5.368-14.423h2.754l5.398,14.423h-3.16L125.703,14.127z
			 M121.295,11.719h3.606l-1.813-5.398L121.295,11.719z"/>
		<path fill="#010101" d="M136.549,11.819h-2.368v5.279h-2.973V2.676h5.359c1.704,0,3.018,0.38,3.942,1.139
			c0.924,0.759,1.387,1.832,1.387,3.219c0,0.985-0.213,1.804-0.639,2.461c-0.427,0.658-1.072,1.18-1.936,1.57l3.12,5.895v0.138
			h-3.19L136.549,11.819z M134.182,9.411h2.397c0.747,0,1.324-0.19,1.734-0.569c0.41-0.379,0.614-0.902,0.614-1.57
			c0-0.68-0.193-1.216-0.58-1.605c-0.386-0.39-0.979-0.585-1.778-0.585h-2.387L134.182,9.411L134.182,9.411z"/>
		<path fill="#010101" d="M152.834,10.848h-5.706v3.863h6.696v2.387h-9.669V2.676h9.648v2.407h-6.677V8.52h5.706L152.834,10.848
			L152.834,10.848z"/>
		<path fill="#010101" d="M155.568,17.099V2.676h4.437c1.268,0,2.402,0.286,3.402,0.857c1.001,0.572,1.782,1.384,2.342,2.437
			s0.842,2.249,0.842,3.591v0.663c0,1.341-0.276,2.532-0.827,3.576c-0.551,1.043-1.329,1.853-2.333,2.427
			c-1.004,0.574-2.136,0.866-3.398,0.871h-4.466V17.099z M158.54,5.083v9.628h1.436c1.162,0,2.051-0.38,2.665-1.139
			c0.614-0.759,0.927-1.846,0.941-3.258V9.551c0-1.466-0.304-2.577-0.912-3.334c-0.608-0.756-1.496-1.134-2.665-1.134L158.54,5.083z
			"/>
	</g>
	<path fill="#010101" d="M-8.393,0.317V13.37h-13.112V0.317H-8.393 M-4.046-4.03h-21.805v21.747h21.805V-4.03L-4.046-4.03z"/>
	<path fill="#010101" d="M-6.859,7.921c3.978,0,7.214,3.237,7.214,7.214s-3.237,7.214-7.214,7.214s-7.214-3.237-7.214-7.214
		S-10.836,7.921-6.859,7.921 M-6.859,4.297c-5.985,0-10.836,4.851-10.836,10.836S-12.844,25.97-6.859,25.97
		S3.978,21.119,3.978,15.134S-0.874,4.297-6.859,4.297L-6.859,4.297z"/>
</g>
</svg>
