<?xml version="1.0" encoding="utf-8"?>
<!-- Generator: Adobe Illustrator 17.0.0, SVG Export Plug-In . SVG Version: 6.00 Build 0)  -->
<!DOCTYPE svg PUBLIC "-//W3C//DTD SVG 1.1//EN" "http://www.w3.org/Graphics/SVG/1.1/DTD/svg11.dtd">
<svg version="1.1" id="Layer_1" xmlns="http://www.w3.org/2000/svg" xmlns:xlink="http://www.w3.org/1999/xlink" x="0px" y="0px"
	 width="161.651px" height="25.2px" viewBox="15.278 2.4 161.651 25.2" enable-background="new 15.278 2.4 161.651 25.2"
	 xml:space="preserve">
<g>
	<g>
		<path fill="#010101" d="M55.024,16.113c-0.094,1.304-0.575,2.329-1.444,3.079c-0.869,0.749-2.013,1.123-3.432,1.123
			c-1.553,0-2.775-0.522-3.665-1.567c-0.89-1.045-1.336-2.481-1.336-4.306V13.7c0-1.165,0.206-2.192,0.616-3.079
			c0.412-0.888,0.997-1.567,1.76-2.042c0.763-0.475,1.648-0.711,2.658-0.711c1.398,0,2.523,0.375,3.378,1.123
			c0.854,0.748,1.348,1.8,1.482,3.154h-2.497c-0.062-0.782-0.279-1.35-0.654-1.702c-0.375-0.353-0.944-0.528-1.71-0.528
			c-0.832,0-1.455,0.299-1.867,0.895c-0.413,0.596-0.625,1.522-0.637,2.775V14.5c0,1.31,0.199,2.266,0.595,2.87
			c0.396,0.604,1.022,0.907,1.877,0.907c0.771,0,1.347-0.176,1.726-0.528c0.381-0.353,0.597-0.898,0.654-1.635h2.495l0,0
			L55.024,16.113L55.024,16.113z"/>
		<path fill="#010101" d="M59.317,20.148h-2.496V8.033h2.497L59.317,20.148L59.317,20.148z"/>
		<path fill="#010101" d="M66.115,15.713h-1.989v4.434h-2.497V8.033h4.502c1.431,0,2.535,0.319,3.311,0.957
			c0.776,0.638,1.165,1.539,1.165,2.704c0,0.827-0.179,1.515-0.537,2.067c-0.359,0.553-0.9,0.991-1.626,1.319l2.621,4.952v0.116
			h-2.68L66.115,15.713z M64.128,13.69h2.013c0.627,0,1.112-0.16,1.457-0.478c0.344-0.319,0.516-0.758,0.516-1.32
			c0-0.571-0.162-1.021-0.487-1.348c-0.324-0.328-0.822-0.491-1.494-0.491h-2.005L64.128,13.69L64.128,13.69z"/>
		<path fill="#010101" d="M82.016,16.113c-0.094,1.304-0.575,2.329-1.444,3.079c-0.869,0.749-2.013,1.123-3.432,1.123
			c-1.553,0-2.775-0.522-3.665-1.567c-0.89-1.045-1.336-2.481-1.336-4.306V13.7c0-1.165,0.206-2.192,0.616-3.079
			c0.412-0.888,0.997-1.567,1.76-2.042c0.763-0.475,1.648-0.711,2.658-0.711c1.398,0,2.523,0.375,3.378,1.123
			c0.854,0.749,1.348,1.8,1.482,3.154h-2.497c-0.062-0.782-0.279-1.35-0.654-1.702c-0.375-0.353-0.944-0.528-1.71-0.528
			c-0.832,0-1.455,0.299-1.867,0.895c-0.413,0.596-0.625,1.522-0.637,2.775V14.5c0,1.31,0.199,2.266,0.595,2.87
			c0.396,0.604,1.022,0.907,1.877,0.907c0.771,0,1.347-0.176,1.726-0.528c0.381-0.353,0.597-0.898,0.654-1.635h2.495l0,0
			L82.016,16.113L82.016,16.113z"/>
		<path fill="#010101" d="M86.152,18.142h5.3v2.005h-7.797V8.033h2.497L86.152,18.142L86.152,18.142L86.152,18.142z"/>
		<path fill="#010101" d="M100.172,14.898h-4.793v3.245h5.625v2.005h-8.122V8.033h8.104v2.022h-5.609v2.887h4.793L100.172,14.898
			L100.172,14.898z"/>
		<path fill="#010101" d="M108.751,16.97c0-0.471-0.166-0.832-0.5-1.085c-0.333-0.253-0.932-0.519-1.798-0.8
			c-0.865-0.281-1.551-0.556-2.055-0.828c-1.376-0.744-2.064-1.745-2.064-3.004c0-0.654,0.185-1.238,0.554-1.751
			c0.369-0.513,0.9-0.913,1.588-1.203c0.69-0.288,1.466-0.433,2.326-0.433c0.865,0,1.635,0.157,2.313,0.47
			c0.676,0.313,1.203,0.756,1.577,1.328s0.562,1.22,0.562,1.947h-2.496c0-0.554-0.175-0.985-0.524-1.294
			c-0.349-0.307-0.84-0.462-1.473-0.462c-0.61,0-1.084,0.129-1.423,0.387c-0.339,0.259-0.507,0.597-0.507,1.02
			c0,0.394,0.199,0.723,0.595,0.99c0.396,0.266,0.981,0.516,1.751,0.749c1.42,0.428,2.454,0.957,3.104,1.589
			c0.649,0.633,0.974,1.42,0.974,2.363c0,1.048-0.396,1.871-1.19,2.467c-0.794,0.596-1.861,0.895-3.204,0.895
			c-0.932,0-1.78-0.17-2.546-0.512c-0.766-0.342-1.35-0.809-1.751-1.403c-0.402-0.594-0.603-1.281-0.603-2.064h2.504
			c0,1.337,0.8,2.005,2.397,2.005c0.594,0,1.057-0.121,1.39-0.362S108.751,17.402,108.751,16.97z"/>
		<path fill="#010101" d="M122.88,14.365c0,1.131-0.182,2.114-0.549,2.949c-0.365,0.835-0.874,1.504-1.523,2.01l2.013,1.582
			l-1.588,1.407l-2.58-2.072c-0.294,0.05-0.598,0.075-0.916,0.075c-1.004,0-1.9-0.241-2.688-0.723
			c-0.788-0.482-1.398-1.173-1.831-2.067c-0.433-0.895-0.651-1.926-0.657-3.091v-0.6c0-1.194,0.216-2.243,0.645-3.149
			c0.429-0.907,1.037-1.604,1.822-2.089c0.785-0.485,1.683-0.728,2.692-0.728s1.907,0.243,2.692,0.728
			c0.785,0.486,1.392,1.181,1.822,2.089c0.429,0.907,0.645,1.954,0.645,3.142L122.88,14.365L122.88,14.365z M120.351,13.816
			c0-1.27-0.228-2.235-0.682-2.895c-0.454-0.659-1.104-0.99-1.947-0.99c-0.837,0-1.484,0.326-1.939,0.978
			c-0.454,0.652-0.685,1.607-0.69,2.867v0.591c0,1.237,0.228,2.196,0.682,2.879c0.454,0.682,1.11,1.023,1.964,1.023
			c0.837,0,1.482-0.328,1.931-0.985c0.449-0.657,0.676-1.615,0.682-2.875L120.351,13.816L120.351,13.816z"/>
		<path fill="#010101" d="M133.88,8.033v7.979c0,1.326-0.415,2.374-1.244,3.145c-0.829,0.771-1.963,1.157-3.399,1.157
			c-1.414,0-2.538-0.375-3.37-1.123c-0.832-0.749-1.257-1.778-1.273-3.087V8.033h2.497v7.997c0,0.794,0.191,1.372,0.57,1.735
			c0.381,0.363,0.905,0.545,1.577,0.545c1.404,0,2.117-0.738,2.139-2.213V8.034L133.88,8.033L133.88,8.033L133.88,8.033z"/>
		<path fill="#010101" d="M142.584,17.652h-4.376l-0.832,2.497h-2.654l4.509-12.115h2.313l4.534,12.115h-2.654L142.584,17.652z
			 M138.881,15.629h3.029l-1.523-4.534L138.881,15.629z"/>
		<path fill="#010101" d="M151.694,15.713h-1.989v4.434h-2.497V8.033h4.502c1.431,0,2.535,0.319,3.311,0.957
			c0.776,0.638,1.165,1.539,1.165,2.704c0,0.827-0.179,1.515-0.537,2.067c-0.359,0.553-0.9,0.991-1.626,1.319l2.621,4.952v0.116
			h-2.68L151.694,15.713z M149.706,13.69h2.013c0.627,0,1.112-0.16,1.457-0.478c0.344-0.318,0.516-0.758,0.516-1.319
			c0-0.571-0.162-1.021-0.487-1.348c-0.324-0.328-0.822-0.491-1.494-0.491h-2.005V13.69L149.706,13.69z"/>
		<path fill="#010101" d="M165.374,14.898h-4.793v3.245h5.625v2.005h-8.122V8.033h8.104v2.022h-5.609v2.887h4.793L165.374,14.898
			L165.374,14.898z"/>
		<path fill="#010101" d="M167.67,20.148V8.033h3.727c1.065,0,2.018,0.24,2.858,0.72c0.841,0.48,1.497,1.163,1.967,2.047
			s0.707,1.889,0.707,3.016v0.557c0,1.126-0.232,2.127-0.695,3.004c-0.463,0.876-1.116,1.557-1.96,2.039
			c-0.843,0.482-1.794,0.727-2.854,0.732L167.67,20.148L167.67,20.148L167.67,20.148z M170.167,10.055v8.088h1.206
			c0.976,0,1.723-0.319,2.239-0.957c0.516-0.638,0.779-1.551,0.79-2.737v-0.641c0-1.231-0.255-2.165-0.766-2.801
			c-0.511-0.635-1.257-0.953-2.239-0.953H170.167z"/>
	</g>
	<path fill="#010101" d="M29.943,6.051v10.965H18.929V6.051H29.943 M33.595,2.4H15.278v18.267h18.316L33.595,2.4L33.595,2.4z"/>
	<path fill="#010101" d="M31.232,12.439c3.342,0,6.06,2.719,6.06,6.06s-2.719,6.06-6.06,6.06s-6.06-2.719-6.06-6.06
		S27.891,12.439,31.232,12.439 M31.232,9.395c-5.027,0-9.102,4.075-9.102,9.102s4.075,9.103,9.102,9.103s9.103-4.075,9.103-9.102
		S36.259,9.395,31.232,9.395L31.232,9.395z"/>
</g>
</svg>
