<?xml version="1.0" encoding="utf-8"?>
<!-- Generator: Adobe Illustrator 17.0.0, SVG Export Plug-In . SVG Version: 6.00 Build 0)  -->
<!DOCTYPE svg PUBLIC "-//W3C//DTD SVG 1.1//EN" "http://www.w3.org/Graphics/SVG/1.1/DTD/svg11.dtd">
<svg version="1.1" id="Layer_1" xmlns="http://www.w3.org/2000/svg" xmlns:xlink="http://www.w3.org/1999/xlink" x="0px" y="0px"
	 width="33.338px" height="30px" viewBox="0 0 33.338 30" enable-background="new 0 0 33.338 30" xml:space="preserve">
<path fill="#EC2227" d="M16.668,29.996c-5.15,0-10.3-0.001-15.45,0.002c-0.384,0-0.704-0.114-0.948-0.417
	c-0.31-0.385-0.36-0.895-0.118-1.328c0.727-1.301,1.459-2.6,2.189-3.9c1.001-1.783,2.002-3.566,3.004-5.349
	c0.862-1.535,1.725-3.069,2.587-4.603c1.047-1.865,2.093-3.73,3.14-5.595c0.881-1.569,1.763-3.137,2.644-4.705
	c0.52-0.925,1.04-1.851,1.559-2.776c0.143-0.255,0.282-0.513,0.432-0.764C15.923,0.198,16.241,0.001,16.67,0
	c0.43-0.001,0.753,0.195,0.961,0.562c0.767,1.355,1.526,2.715,2.29,4.072c0.513,0.911,1.029,1.821,1.541,2.732
	c0.739,1.317,1.475,2.636,2.214,3.953c1.121,1.998,2.244,3.994,3.366,5.992c0.954,1.698,1.906,3.396,2.86,5.094
	c0.988,1.76,1.975,3.519,2.962,5.279c0.113,0.201,0.228,0.4,0.338,0.603c0.36,0.668-0.029,1.529-0.77,1.687
	c-0.173,0.037-0.357,0.024-0.536,0.024c-5.076,0.001-10.152,0.001-15.227,0.001C16.668,29.998,16.668,29.997,16.668,29.996z
	 M15.529,9.072c0,4.383,0,8.753,0,13.122c0.021,0.006,0.032,0.012,0.043,0.012c0.722,0.001,1.445,0.001,2.167,0.003
	c0.071,0,0.082-0.036,0.081-0.096c-0.003-0.18-0.002-0.359-0.002-0.539c0-4.119,0.001-8.239,0.001-12.358c0-0.046,0-0.091,0-0.144
	C17.048,9.072,16.293,9.072,15.529,9.072z M17.813,26.528c0-0.762,0-1.517,0-2.277c-0.764,0-1.522,0-2.287,0
	c0,0.762,0,1.517,0,2.277C16.29,26.528,17.048,26.528,17.813,26.528z"/>
</svg>
