<svg width="47" height="45" viewBox="0 0 47 45" fill="none" xmlns="http://www.w3.org/2000/svg">
<path fill-rule="evenodd" clip-rule="evenodd" d="M22.9882 0.947754C10.7237 0.947754 0.777344 10.8928 0.777344 23.1614C0.777344 32.9742 7.14144 41.3005 15.9682 44.2392C17.0796 44.4423 17.4846 43.7565 17.4846 43.1674C17.4846 42.6396 17.4655 41.2432 17.4547 39.39C11.276 40.7318 9.97235 36.4118 9.97235 36.4118C8.96189 33.8455 7.50554 33.1623 7.50554 33.1623C5.48872 31.785 7.65827 31.8123 7.65827 31.8123C9.88781 31.9691 11.0605 34.1019 11.0605 34.1019C13.0419 37.4959 16.2601 36.5156 17.5255 35.9469C17.7273 34.5123 18.3014 33.5332 18.9355 32.9782C14.0033 32.4164 8.81735 30.5114 8.81735 21.9996C8.81735 19.5737 9.68326 17.5923 11.1041 16.0392C10.8751 15.4773 10.1128 13.2192 11.3224 10.1605C11.3224 10.1605 13.1864 9.56321 17.43 12.4364C19.2014 11.9441 21.1023 11.6987 22.991 11.6892C24.8782 11.6987 26.7779 11.9441 28.5519 12.4364C32.7928 9.56321 34.6542 10.1605 34.6542 10.1605C35.8664 13.2192 35.1042 15.4773 34.8764 16.0392C36.3001 17.5923 37.1592 19.5737 37.1592 21.9996C37.1592 30.5332 31.9651 32.4109 27.0178 32.9606C27.8142 33.6464 28.5247 35.0019 28.5247 37.0746C28.5247 40.0432 28.4974 42.4392 28.4974 43.1674C28.4974 43.7619 28.8983 44.4532 30.0246 44.2364C38.8446 41.2923 45.2032 32.9728 45.2032 23.1614C45.2032 10.8928 35.2569 0.947754 22.9882 0.947754Z" fill="#1B1817"/>
</svg>
