<?xml version="1.0" encoding="utf-8"?>
<!-- Generator: Adobe Illustrator 17.0.0, SVG Export Plug-In . SVG Version: 6.00 Build 0)  -->
<!DOCTYPE svg PUBLIC "-//W3C//DTD SVG 1.1//EN" "http://www.w3.org/Graphics/SVG/1.1/DTD/svg11.dtd">
<svg version="1.1" id="Layer_1" xmlns="http://www.w3.org/2000/svg" xmlns:xlink="http://www.w3.org/1999/xlink" x="0px" y="0px"
	 width="140.741px" height="21.941px" viewBox="0 0 140.741 21.941" enable-background="new 0 0 140.741 21.941"
	 xml:space="preserve">
<g>
	<g>
		<path fill="#010101" d="M34.604,11.939c-0.082,1.135-0.501,2.028-1.257,2.681c-0.756,0.652-1.752,0.978-2.988,0.978
			c-1.352,0-2.416-0.455-3.191-1.365c-0.775-0.91-1.163-2.16-1.163-3.749V9.838c0-1.014,0.179-1.908,0.536-2.681
			c0.358-0.773,0.868-1.365,1.532-1.778c0.664-0.413,1.435-0.619,2.314-0.619c1.217,0,2.197,0.326,2.941,0.978
			s1.174,1.567,1.29,2.746h-2.174c-0.054-0.681-0.243-1.175-0.569-1.482c-0.326-0.307-0.822-0.46-1.489-0.46
			c-0.724,0-1.267,0.26-1.626,0.779c-0.36,0.519-0.544,1.325-0.554,2.416v0.797c0,1.14,0.173,1.973,0.518,2.499
			c0.345,0.526,0.89,0.79,1.634,0.79c0.671,0,1.173-0.153,1.503-0.46c0.331-0.307,0.52-0.782,0.569-1.424h2.172V11.939z"/>
		<path fill="#010101" d="M38.342,15.452h-2.173V4.904h2.174L38.342,15.452L38.342,15.452z"/>
		<path fill="#010101" d="M44.261,11.591h-1.732v3.861h-2.174V4.904h3.919c1.246,0,2.207,0.278,2.883,0.833
			c0.676,0.555,1.014,1.34,1.014,2.354c0,0.72-0.156,1.319-0.467,1.8c-0.312,0.481-0.784,0.863-1.416,1.148l2.282,4.311v0.101
			h-2.333L44.261,11.591z M42.53,9.83h1.753c0.546,0,0.968-0.139,1.268-0.416C45.851,9.136,46,8.754,46,8.265
			c0-0.497-0.141-0.889-0.424-1.174c-0.282-0.285-0.716-0.428-1.3-0.428H42.53L42.53,9.83L42.53,9.83z"/>
		<path fill="#010101" d="M58.105,11.939c-0.082,1.135-0.501,2.028-1.257,2.681c-0.756,0.652-1.752,0.978-2.988,0.978
			c-1.352,0-2.416-0.455-3.191-1.365c-0.775-0.91-1.163-2.16-1.163-3.749V9.838c0-1.014,0.179-1.908,0.536-2.681
			c0.358-0.773,0.868-1.365,1.532-1.778c0.664-0.413,1.435-0.619,2.314-0.619c1.217,0,2.197,0.326,2.941,0.978
			s1.174,1.567,1.29,2.746h-2.174c-0.054-0.681-0.243-1.175-0.569-1.482c-0.326-0.307-0.822-0.46-1.489-0.46
			c-0.724,0-1.267,0.26-1.626,0.779c-0.36,0.519-0.544,1.325-0.554,2.416v0.797c0,1.14,0.173,1.973,0.518,2.499
			c0.345,0.526,0.89,0.79,1.634,0.79c0.671,0,1.173-0.153,1.503-0.46c0.331-0.307,0.52-0.782,0.569-1.424h2.172V11.939z"/>
		<path fill="#010101" d="M61.705,13.706h4.615v1.746h-6.788V4.904h2.174V13.706z"/>
		<path fill="#010101" d="M73.912,10.881h-4.173v2.825h4.897v1.746h-7.071V4.904h7.056v1.76h-4.883v2.514h4.173L73.912,10.881
			L73.912,10.881z"/>
		<path fill="#010101" d="M81.381,12.685c0-0.41-0.145-0.725-0.435-0.945s-0.811-0.452-1.565-0.696
			c-0.753-0.244-1.35-0.484-1.789-0.721c-1.198-0.648-1.797-1.519-1.797-2.615c0-0.57,0.161-1.078,0.482-1.525
			c0.321-0.447,0.783-0.795,1.383-1.047c0.601-0.251,1.276-0.377,2.025-0.377c0.753,0,1.424,0.137,2.014,0.409
			c0.589,0.273,1.047,0.658,1.373,1.156s0.489,1.062,0.489,1.695h-2.173c0-0.483-0.152-0.858-0.456-1.127
			C80.628,6.624,80.201,6.49,79.65,6.49c-0.531,0-0.944,0.112-1.239,0.337s-0.442,0.52-0.442,0.888c0,0.343,0.173,0.63,0.518,0.862
			s0.854,0.449,1.525,0.652c1.236,0.372,2.137,0.833,2.702,1.384c0.565,0.551,0.848,1.236,0.848,2.057
			c0,0.913-0.345,1.629-1.036,2.148c-0.691,0.519-1.62,0.779-2.789,0.779c-0.811,0-1.55-0.148-2.217-0.446s-1.175-0.704-1.525-1.221
			s-0.525-1.115-0.525-1.797h2.18c0,1.164,0.696,1.746,2.087,1.746c0.517,0,0.92-0.105,1.21-0.315S81.381,13.061,81.381,12.685z"/>
		<path fill="#010101" d="M93.682,10.417c0,0.985-0.159,1.841-0.478,2.568c-0.318,0.727-0.761,1.31-1.326,1.75l1.753,1.377
			l-1.383,1.225l-2.246-1.804c-0.256,0.043-0.521,0.065-0.797,0.065c-0.874,0-1.654-0.21-2.34-0.63
			c-0.686-0.42-1.217-1.021-1.594-1.8c-0.377-0.779-0.567-1.677-0.572-2.691V9.955c0-1.039,0.188-1.953,0.562-2.742
			c0.374-0.79,0.903-1.396,1.586-1.819c0.684-0.422,1.465-0.634,2.344-0.634s1.66,0.211,2.344,0.634
			c0.684,0.423,1.212,1.028,1.586,1.819c0.374,0.79,0.562,1.701,0.562,2.735v0.469H93.682z M91.48,9.939
			c0-1.106-0.198-1.946-0.594-2.521c-0.396-0.574-0.961-0.862-1.695-0.862c-0.729,0-1.292,0.284-1.688,0.851
			c-0.396,0.567-0.597,1.399-0.601,2.496v0.515c0,1.077,0.198,1.912,0.594,2.506s0.966,0.891,1.71,0.891
			c0.729,0,1.29-0.286,1.681-0.858c0.391-0.572,0.589-1.406,0.594-2.503V9.939z"/>
		<path fill="#010101" d="M103.259,4.904v6.947c0,1.155-0.361,2.067-1.083,2.738c-0.722,0.671-1.709,1.007-2.959,1.007
			c-1.231,0-2.21-0.326-2.934-0.978c-0.724-0.652-1.094-1.548-1.108-2.688V4.904h2.174v6.962c0,0.691,0.166,1.194,0.496,1.511
			c0.331,0.316,0.788,0.475,1.373,0.475c1.222,0,1.843-0.642,1.862-1.927v-7.02H103.259z"/>
		<path fill="#010101" d="M110.837,13.279h-3.81l-0.724,2.174h-2.311l3.926-10.548h2.014l3.948,10.548h-2.311L110.837,13.279z
			 M107.613,11.518h2.637l-1.326-3.948L107.613,11.518z"/>
		<path fill="#010101" d="M118.769,11.591h-1.732v3.861h-2.174V4.904h3.919c1.246,0,2.207,0.278,2.883,0.833
			c0.676,0.555,1.014,1.34,1.014,2.354c0,0.72-0.156,1.319-0.467,1.8c-0.312,0.481-0.784,0.863-1.416,1.148l2.282,4.311v0.101
			h-2.333L118.769,11.591z M117.038,9.83h1.753c0.546,0,0.968-0.139,1.268-0.416s0.449-0.66,0.449-1.148
			c0-0.497-0.141-0.889-0.424-1.174c-0.282-0.285-0.716-0.428-1.3-0.428h-1.746L117.038,9.83L117.038,9.83z"/>
		<path fill="#010101" d="M130.679,10.881h-4.173v2.825h4.897v1.746h-7.071V4.904h7.056v1.76h-4.883v2.514h4.173L130.679,10.881
			L130.679,10.881z"/>
		<path fill="#010101" d="M132.678,15.452V4.904h3.245c0.927,0,1.757,0.209,2.488,0.627c0.732,0.418,1.303,1.012,1.713,1.782
			c0.41,0.77,0.616,1.645,0.616,2.626v0.485c0,0.981-0.202,1.852-0.605,2.615s-0.972,1.355-1.706,1.775
			c-0.734,0.42-1.562,0.633-2.485,0.637H132.678z M134.852,6.665v7.041h1.05c0.85,0,1.5-0.278,1.949-0.833
			c0.449-0.555,0.678-1.35,0.688-2.383V9.932c0-1.072-0.222-1.885-0.667-2.438c-0.445-0.553-1.094-0.829-1.949-0.829L134.852,6.665z
			"/>
	</g>
	<path fill="#010101" d="M12.768,3.179v9.546H3.179V3.179H12.768 M15.947,0H0v15.904h15.947V0L15.947,0z"/>
	<path fill="#010101" d="M13.89,8.74c2.909,0,5.276,2.367,5.276,5.276s-2.367,5.276-5.276,5.276s-5.276-2.367-5.276-5.276
		S10.981,8.74,13.89,8.74 M13.89,6.09c-4.377,0-7.925,3.548-7.925,7.925s3.548,7.925,7.925,7.925c4.377,0,7.925-3.548,7.925-7.925
		S18.267,6.09,13.89,6.09L13.89,6.09z"/>
</g>
</svg>
