<?xml version="1.0" encoding="utf-8"?>
<!-- Generator: Adobe Illustrator 17.0.0, SVG Export Plug-In . SVG Version: 6.00 Build 0)  -->
<!DOCTYPE svg PUBLIC "-//W3C//DTD SVG 1.1//EN" "http://www.w3.org/Graphics/SVG/1.1/DTD/svg11.dtd">
<svg version="1.1" id="Layer_1" xmlns="http://www.w3.org/2000/svg" xmlns:xlink="http://www.w3.org/1999/xlink" x="0px" y="0px"
	 width="25px" height="25px" viewBox="0 0 25 25" enable-background="new 0 0 25 25" xml:space="preserve">
<rect fill="#71706E" width="25" height="25"/>
<path fill="#FFFFFF" d="M6.927,8.132h1.181v7.687c0,0.419-0.068,0.774-0.203,1.066c-0.131,0.292-0.33,0.512-0.597,0.66
	c-0.262,0.152-0.595,0.229-0.997,0.229c-0.106,0-0.229-0.011-0.368-0.032c-0.144-0.021-0.264-0.047-0.362-0.076l0.006-0.946
	c0.08,0.017,0.171,0.03,0.273,0.038c0.102,0.013,0.19,0.019,0.267,0.019c0.174,0,0.319-0.032,0.438-0.095
	c0.118-0.063,0.207-0.165,0.267-0.305c0.063-0.14,0.095-0.326,0.095-0.559V8.132z M6.806,6.31c0-0.19,0.059-0.351,0.178-0.482
	c0.118-0.131,0.29-0.197,0.514-0.197c0.229,0,0.402,0.066,0.521,0.197C8.137,5.959,8.196,6.12,8.196,6.31
	c0,0.182-0.059,0.339-0.178,0.47C7.9,6.907,7.727,6.97,7.498,6.97c-0.224,0-0.396-0.063-0.514-0.19
	C6.865,6.649,6.806,6.492,6.806,6.31z M11.173,9.497V15H9.993V8.132h1.117L11.173,9.497z M10.932,11.306l-0.546-0.019
	c0.004-0.47,0.066-0.903,0.184-1.301c0.118-0.402,0.294-0.751,0.527-1.047c0.233-0.296,0.523-0.525,0.87-0.686
	c0.347-0.165,0.749-0.248,1.206-0.248c0.322,0,0.618,0.047,0.889,0.14c0.271,0.089,0.506,0.231,0.705,0.425
	c0.199,0.195,0.353,0.444,0.463,0.749c0.11,0.305,0.165,0.673,0.165,1.104V15H14.22v-4.52c0-0.36-0.061-0.647-0.184-0.863
	c-0.118-0.216-0.288-0.372-0.508-0.47c-0.22-0.102-0.478-0.152-0.774-0.152c-0.347,0-0.637,0.061-0.87,0.184
	c-0.233,0.123-0.419,0.292-0.559,0.508c-0.14,0.216-0.241,0.463-0.305,0.743C10.962,10.705,10.932,10.997,10.932,11.306z
	 M15.382,10.658l-0.787,0.241c0.004-0.377,0.066-0.738,0.184-1.085c0.123-0.347,0.298-0.656,0.527-0.927
	c0.233-0.271,0.518-0.485,0.857-0.641c0.338-0.161,0.726-0.241,1.162-0.241c0.368,0,0.694,0.049,0.978,0.146
	c0.288,0.097,0.529,0.248,0.724,0.451c0.199,0.199,0.349,0.455,0.451,0.768c0.101,0.313,0.152,0.686,0.152,1.117V15h-1.181v-4.526
	c0-0.385-0.061-0.683-0.184-0.895c-0.118-0.216-0.288-0.366-0.508-0.451c-0.216-0.089-0.474-0.133-0.775-0.133
	c-0.258,0-0.487,0.044-0.685,0.133c-0.199,0.089-0.366,0.212-0.502,0.368c-0.135,0.152-0.239,0.328-0.311,0.527
	C15.416,10.222,15.382,10.434,15.382,10.658z"/>
</svg>
