<?xml version="1.0" encoding="utf-8"?>
<!-- Generator: Adobe Illustrator 17.0.0, SVG Export Plug-In . SVG Version: 6.00 Build 0)  -->
<!DOCTYPE svg PUBLIC "-//W3C//DTD SVG 1.1//EN" "http://www.w3.org/Graphics/SVG/1.1/DTD/svg11.dtd">
<svg version="1.1" id="Layer_1" xmlns="http://www.w3.org/2000/svg" xmlns:xlink="http://www.w3.org/1999/xlink" x="0px" y="0px"
	 width="19.415px" height="20px" viewBox="502.292 501.95 19.415 20" enable-background="new 502.292 501.95 19.415 20"
	 xml:space="preserve">
<path fill="#636466" d="M521.074,512.477c0.408-0.539,0.633-1.199,0.633-1.886c0-1.09-0.609-2.121-1.59-2.696
	c-0.252-0.148-0.54-0.226-0.832-0.226h-5.82l0.146-2.983c0.034-0.721-0.221-1.405-0.716-1.927c-0.491-0.52-1.175-0.813-1.891-0.811
	c-1.262,0-2.378,0.849-2.713,2.065l-2.085,7.548H506.2v10.387h11.462c0.223,0,0.442-0.044,0.643-0.131
	c1.155-0.493,1.9-1.621,1.9-2.873c0-0.306-0.044-0.607-0.131-0.898c0.408-0.539,0.633-1.199,0.633-1.886
	c0-0.306-0.044-0.607-0.131-0.898c0.408-0.539,0.633-1.199,0.633-1.886C521.205,513.072,521.161,512.769,521.074,512.477
	L521.074,512.477z M502.292,512.339v8.834c0,0.43,0.347,0.777,0.777,0.777h1.577v-10.387h-1.577
	C502.639,511.563,502.292,511.91,502.292,512.339z"/>
</svg>
