<?xml version="1.0" encoding="utf-8"?>
<!-- Generator: Adobe Illustrator 17.0.0, SVG Export Plug-In . SVG Version: 6.00 Build 0)  -->
<!DOCTYPE svg PUBLIC "-//W3C//DTD SVG 1.1//EN" "http://www.w3.org/Graphics/SVG/1.1/DTD/svg11.dtd">
<svg version="1.1" id="Layer_1" xmlns="http://www.w3.org/2000/svg" xmlns:xlink="http://www.w3.org/1999/xlink" x="0px" y="0px"
	 width="14px" height="12.073px" viewBox="0 0 14 12.073" enable-background="new 0 0 14 12.073" xml:space="preserve">
<g id="love">
	<path id="love_1_" fill="#5E3D98" d="M6.999,12.074c-0.042,0-0.084-0.016-0.116-0.048L1.064,6.206
		C0.377,5.519-0.001,4.609-0.001,3.641c0-0.975,0.378-1.89,1.065-2.577c0.686-0.686,1.599-1.064,2.57-1.065c0,0,0,0,0.001,0
		c0.972,0,1.885,0.378,2.571,1.065l0.793,0.793l0.793-0.793c0.687-0.687,1.6-1.065,2.571-1.065c0.001,0,0.002,0,0.004,0
		c0.97,0.001,1.882,0.379,2.568,1.065c0.687,0.687,1.065,1.6,1.065,2.571s-0.378,1.884-1.065,2.571l-5.819,5.819
		C7.083,12.058,7.041,12.074,6.999,12.074z M3.635,0.33L3.635,0.33c-0.884,0-1.714,0.344-2.338,0.969
		C0.672,1.924,0.328,2.756,0.328,3.644c0,0.88,0.344,1.708,0.969,2.333l0,0l5.702,5.702l5.702-5.702
		c0.625-0.625,0.969-1.455,0.969-2.339s-0.344-1.714-0.969-2.339c-0.624-0.624-1.454-0.968-2.335-0.969c-0.001,0-0.003,0-0.004,0
		c-0.883,0-1.714,0.344-2.339,0.969L7.114,2.208c-0.064,0.064-0.168,0.064-0.232,0L5.973,1.299C5.35,0.674,4.519,0.33,3.635,0.33z"
		/>
</g>
</svg>
