<?xml version="1.0" encoding="utf-8"?>
<!-- Generator: Adobe Illustrator 17.0.0, SVG Export Plug-In . SVG Version: 6.00 Build 0)  -->
<!DOCTYPE svg PUBLIC "-//W3C//DTD SVG 1.1//EN" "http://www.w3.org/Graphics/SVG/1.1/DTD/svg11.dtd">
<svg version="1.1" id="Layer_1" xmlns="http://www.w3.org/2000/svg" xmlns:xlink="http://www.w3.org/1999/xlink" x="0px" y="0px"
	 width="14px" height="12.073px" viewBox="291.245 414.899 14 12.073" enable-background="new 291.245 414.899 14 12.073"
	 xml:space="preserve">
<g id="love">
	<path id="love_1_" fill="#FFFFFF" d="M298.244,426.972c-0.042,0-0.084-0.016-0.116-0.048l-5.819-5.819
		c-0.687-0.687-1.065-1.598-1.065-2.565c0-0.975,0.378-1.89,1.065-2.577c0.686-0.686,1.599-1.064,2.57-1.065c0,0,0,0,0.001,0
		c0.972,0,1.885,0.378,2.571,1.065l0.793,0.793l0.793-0.793c0.687-0.687,1.6-1.065,2.571-1.065c0.001,0,0.002,0,0.004,0
		c0.97,0.001,1.882,0.379,2.568,1.065c0.687,0.687,1.065,1.6,1.065,2.571c0,0.971-0.378,1.884-1.065,2.571l-5.819,5.819
		C298.328,426.956,298.286,426.972,298.244,426.972z M294.88,415.228C294.88,415.228,294.88,415.228,294.88,415.228
		c-0.884,0-1.714,0.344-2.338,0.969c-0.625,0.625-0.969,1.457-0.969,2.345c0,0.88,0.344,1.708,0.969,2.333l0,0l5.702,5.702
		l5.702-5.702c0.625-0.625,0.969-1.455,0.969-2.339c0-0.884-0.344-1.714-0.969-2.339c-0.624-0.624-1.454-0.968-2.335-0.969
		c-0.001,0-0.003,0-0.004,0c-0.883,0-1.714,0.344-2.339,0.969l-0.909,0.909c-0.064,0.064-0.168,0.064-0.232,0l-0.909-0.909
		C296.595,415.572,295.764,415.228,294.88,415.228z"/>
</g>
<g id="Layer_1_1_">
</g>
</svg>
