<?xml version="1.0" encoding="utf-8"?>
<!-- Generator: Adobe Illustrator 17.0.0, SVG Export Plug-In . SVG Version: 6.00 Build 0)  -->
<!DOCTYPE svg PUBLIC "-//W3C//DTD SVG 1.1//EN" "http://www.w3.org/Graphics/SVG/1.1/DTD/svg11.dtd">
<svg version="1.1" id="Layer_1" xmlns="http://www.w3.org/2000/svg" xmlns:xlink="http://www.w3.org/1999/xlink" x="0px" y="0px"
	 width="48.532px" height="52.447px" viewBox="0 0 48.532 52.447" enable-background="new 0 0 48.532 52.447" xml:space="preserve">
<g>
	<path fill="#F26A21" d="M40.473,28.677c-0.099,5.328-0.013,12.863-0.037,18.193c-0.017,3.7-2.047,5.516-5.615,5.537
		c-9.661,0.056-19.322,0.047-28.983,0.008c-3.883-0.015-5.8-2.157-5.815-5.954c-0.038-9.661-0.02-19.322-0.009-28.983
		c0.004-3.854,1.845-5.841,5.819-5.799c5.329,0.057,10.587-0.107,15.909,0.102v4.358c-5.463,0.255-11.022,0.113-16.876,0.113
		c0,10.603,0,20.818,0,31.371c10.153,0,20.228,0,31.096,0c0-6.638,0-12.708,0-18.946H40.473z"/>
	<path fill="#F26A21" d="M7.281,30.273c0.963-1.147,1.784-2.124,2.835-3.375c3.414,2.931,6.643,5.703,10.33,8.869
		C28.627,23.759,36.631,12.01,44.813,0c1.258,0.813,2.312,1.493,3.719,2.403c-9.036,13.318-17.959,26.47-27.248,40.161
		C16.537,38.397,12.005,34.419,7.281,30.273z"/>
</g>
</svg>
