<?xml version="1.0" encoding="utf-8"?>
<!-- Generator: Adobe Illustrator 17.0.0, SVG Export Plug-In . SVG Version: 6.00 Build 0)  -->
<!DOCTYPE svg PUBLIC "-//W3C//DTD SVG 1.1//EN" "http://www.w3.org/Graphics/SVG/1.1/DTD/svg11.dtd">
<svg version="1.1" id="Layer_1" xmlns="http://www.w3.org/2000/svg" xmlns:xlink="http://www.w3.org/1999/xlink" x="0px" y="0px"
	 width="51px" height="51px" viewBox="230.5 230.777 51 51" enable-background="new 230.5 230.777 51 51" xml:space="preserve">
<rect x="233.692" y="233.969" fill="#DCDDDE" width="44.617" height="44.617"/>
<path d="M263.143,254.492h-5.357v-5.357c0-0.657-0.533-1.19-1.19-1.19h-1.19c-0.657,0-1.19,0.533-1.19,1.19v5.357h-5.357
	c-0.657,0-1.19,0.533-1.19,1.19v1.19c0,0.657,0.533,1.19,1.19,1.19h5.357v5.357c0,0.657,0.533,1.19,1.19,1.19h1.19
	c0.657,0,1.19-0.533,1.19-1.19v-5.357h5.357c0.657,0,1.19-0.533,1.19-1.19v-1.19C264.333,255.024,263.8,254.492,263.143,254.492z"/>
<rect x="231" y="231.277" fill="none" stroke="#DCDDDE" stroke-miterlimit="10" width="50" height="50"/>
</svg>
