<?xml version="1.0" encoding="utf-8"?>
<!-- Generator: Adobe Illustrator 17.0.0, SVG Export Plug-In . SVG Version: 6.00 Build 0)  -->
<!DOCTYPE svg PUBLIC "-//W3C//DTD SVG 1.1//EN" "http://www.w3.org/Graphics/SVG/1.1/DTD/svg11.dtd">
<svg version="1.1" id="Layer_1" xmlns="http://www.w3.org/2000/svg" xmlns:xlink="http://www.w3.org/1999/xlink" x="0px" y="0px"
	 width="61px" height="61px" viewBox="225.5 225.777 61 61" enable-background="new 225.5 225.777 61 61" xml:space="preserve">
<rect x="229.23" y="229.507" fill="#DCDDDE" width="53.54" height="53.54"/>
<path d="M264.572,254.135h-6.428v-6.428c0-0.788-0.64-1.428-1.428-1.428h-1.428c-0.788,0-1.428,0.64-1.428,1.428v6.428h-6.428
	c-0.788,0-1.428,0.64-1.428,1.428v1.428c0,0.788,0.64,1.428,1.428,1.428h6.428v6.428c0,0.788,0.64,1.428,1.428,1.428h1.428
	c0.788,0,1.428-0.64,1.428-1.428v-6.428h6.428c0.788,0,1.428-0.64,1.428-1.428v-1.428C266,254.773,265.36,254.135,264.572,254.135z"
	/>
<rect x="226" y="226.277" fill="none" stroke="#DCDDDE" stroke-miterlimit="10" width="60" height="60"/>
</svg>
