<?xml version="1.0" encoding="utf-8"?>
<!-- Generator: Adobe Illustrator 17.0.0, SVG Export Plug-In . SVG Version: 6.00 Build 0)  -->
<!DOCTYPE svg PUBLIC "-//W3C//DTD SVG 1.1//EN" "http://www.w3.org/Graphics/SVG/1.1/DTD/svg11.dtd">
<svg version="1.1" id="Layer_1" xmlns="http://www.w3.org/2000/svg" xmlns:xlink="http://www.w3.org/1999/xlink" x="0px" y="0px"
	 width="25px" height="25px" viewBox="243.5 243.777 25 25" enable-background="new 243.5 243.777 25 25" xml:space="preserve">
<rect x="245.292" y="245.569" fill="#DCDDDE" width="21.416" height="21.416"/>
<path d="M259.429,255.42h-2.571v-2.571c0-0.315-0.256-0.571-0.571-0.571h-0.571c-0.315,0-0.571,0.256-0.571,0.571v2.571h-2.571
	c-0.315,0-0.571,0.256-0.571,0.571v0.571c0,0.315,0.256,0.571,0.571,0.571h2.571v2.571c0,0.315,0.256,0.571,0.571,0.571h0.571
	c0.315,0,0.571-0.256,0.571-0.571v-2.571h2.571c0.315,0,0.571-0.256,0.571-0.571v-0.571C260,255.675,259.744,255.42,259.429,255.42z
	"/>
<rect x="244" y="244.277" fill="none" stroke="#DCDDDE" stroke-miterlimit="10" width="24" height="24"/>
</svg>
