<?xml version="1.0" encoding="utf-8"?>
<!-- Generator: Adobe Illustrator 17.0.0, SVG Export Plug-In . SVG Version: 6.00 Build 0)  -->
<!DOCTYPE svg PUBLIC "-//W3C//DTD SVG 1.1//EN" "http://www.w3.org/Graphics/SVG/1.1/DTD/svg11.dtd">
<svg version="1.1" id="Layer_1" xmlns="http://www.w3.org/2000/svg" xmlns:xlink="http://www.w3.org/1999/xlink" x="0px" y="0px"
	 width="61px" height="61px" viewBox="0 0 61 61" enable-background="new 0 0 61 61" xml:space="preserve">
<path fill="#DCDDDE" d="M30.5,3.73C15.712,3.73,3.73,15.712,3.73,30.5c0,14.788,11.982,26.77,26.77,26.77S57.27,45.288,57.27,30.5
	S45.288,3.73,30.5,3.73z"/>
<circle fill="none" stroke="#DCDDDE" stroke-miterlimit="10" cx="30.5" cy="30.5" r="30"/>
<path d="M39.072,28.357h-6.429v-6.429c0-0.789-0.64-1.429-1.429-1.429h-1.429c-0.789,0-1.429,0.64-1.429,1.429v6.429h-6.429
	c-0.789,0-1.429,0.64-1.429,1.429v1.429c0,0.789,0.64,1.429,1.429,1.429h6.429v6.429c0,0.789,0.64,1.429,1.429,1.429h1.429
	c0.789,0,1.429-0.64,1.429-1.429v-6.429h6.429c0.789,0,1.429-0.64,1.429-1.429v-1.429C40.501,28.997,39.861,28.357,39.072,28.357z"
	/>
</svg>
