<?xml version="1.0" encoding="utf-8"?>
<!-- Generator: Adobe Illustrator 17.0.0, SVG Export Plug-In . SVG Version: 6.00 Build 0)  -->
<!DOCTYPE svg PUBLIC "-//W3C//DTD SVG 1.1//EN" "http://www.w3.org/Graphics/SVG/1.1/DTD/svg11.dtd">
<svg version="1.1" id="Layer_1" xmlns="http://www.w3.org/2000/svg" xmlns:xlink="http://www.w3.org/1999/xlink" x="0px" y="0px"
	 width="61px" height="61px" viewBox="225.5 225.513 61 61" enable-background="new 225.5 225.513 61 61" xml:space="preserve">
<path fill="#DCDDDE" d="M256,230.3c-14.788,0-26.77,11.982-26.77,26.77c0,14.788,11.982,26.77,26.77,26.77
	c14.788,0,26.77-11.982,26.77-26.77C282.77,242.282,270.788,230.3,256,230.3z"/>
<circle fill="none" stroke="#DCDDDE" stroke-miterlimit="10" cx="256" cy="256.013" r="30"/>
<path d="M264.571,254.927h-6.429v-6.429c0-0.789-0.64-1.429-1.429-1.429h-1.429c-0.789,0-1.429,0.64-1.429,1.429v6.429h-6.429
	c-0.789,0-1.429,0.64-1.429,1.429v1.429c0,0.789,0.64,1.429,1.429,1.429h6.429v6.429c0,0.789,0.64,1.429,1.429,1.429h1.429
	c0.789,0,1.429-0.64,1.429-1.429v-6.429h6.429c0.789,0,1.429-0.64,1.429-1.429v-1.429C266,255.567,265.36,254.927,264.571,254.927z"
	/>
</svg>
