<?xml version="1.0" encoding="utf-8"?>
<!-- Generator: Adobe Illustrator 17.0.0, SVG Export Plug-In . SVG Version: 6.00 Build 0)  -->
<!DOCTYPE svg PUBLIC "-//W3C//DTD SVG 1.1//EN" "http://www.w3.org/Graphics/SVG/1.1/DTD/svg11.dtd">
<svg version="1.1" id="Layer_1" xmlns="http://www.w3.org/2000/svg" xmlns:xlink="http://www.w3.org/1999/xlink" x="0px" y="0px"
	 width="31px" height="31px" viewBox="240.5 240.777 31 31" enable-background="new 240.5 240.777 31 31" xml:space="preserve">
<rect x="242.615" y="242.892" fill="#DCDDDE" width="26.77" height="26.77"/>
<path d="M260.286,255.206h-3.214v-3.214c0-0.394-0.32-0.714-0.714-0.714h-0.714c-0.394,0-0.714,0.32-0.714,0.714v3.214h-3.214
	c-0.394,0-0.714,0.32-0.714,0.714v0.714c0,0.394,0.32,0.714,0.714,0.714h3.214v3.214c0,0.394,0.32,0.714,0.714,0.714h0.714
	c0.394,0,0.714-0.32,0.714-0.714v-3.214h3.214c0.394,0,0.714-0.32,0.714-0.714v-0.714C261,255.525,260.68,255.206,260.286,255.206z"
	/>
<rect x="241" y="241.277" fill="none" stroke="#DCDDDE" stroke-miterlimit="10" width="30" height="30"/>
</svg>
