<?xml version="1.0" encoding="utf-8"?>
<!-- Generator: Adobe Illustrator 17.0.0, SVG Export Plug-In . SVG Version: 6.00 Build 0)  -->
<!DOCTYPE svg PUBLIC "-//W3C//DTD SVG 1.1//EN" "http://www.w3.org/Graphics/SVG/1.1/DTD/svg11.dtd">
<svg version="1.1" id="Layer_1" xmlns="http://www.w3.org/2000/svg" xmlns:xlink="http://www.w3.org/1999/xlink" x="0px" y="0px"
	 width="46px" height="46px" viewBox="7.5 7.5 46 46" enable-background="new 7.5 7.5 46 46" xml:space="preserve">
<path fill="#DCDDDE" d="M30.5,10.422c-11.091,0-20.077,8.987-20.077,20.077S19.409,50.577,30.5,50.577S50.577,41.591,50.577,30.5
	S41.591,10.422,30.5,10.422z"/>
<circle fill="none" stroke="#DCDDDE" stroke-miterlimit="10" cx="30.5" cy="30.5" r="22.5"/>
<path d="M36.929,28.893h-4.822v-4.822c0-0.592-0.48-1.072-1.072-1.072h-1.072c-0.592,0-1.072,0.48-1.072,1.072v4.822H24.07
	c-0.592,0-1.072,0.48-1.072,1.072v1.072c0,0.592,0.48,1.072,1.072,1.072h4.822v4.822c0,0.592,0.48,1.072,1.072,1.072h1.072
	c0.592,0,1.072-0.48,1.072-1.072v-4.822h4.822c0.592,0,1.072-0.48,1.072-1.072v-1.072C38.001,29.373,37.521,28.893,36.929,28.893z"
	/>
</svg>
