<?xml version="1.0" encoding="utf-8"?>
<!-- Generator: Adobe Illustrator 17.0.0, SVG Export Plug-In . SVG Version: 6.00 Build 0)  -->
<!DOCTYPE svg PUBLIC "-//W3C//DTD SVG 1.1//EN" "http://www.w3.org/Graphics/SVG/1.1/DTD/svg11.dtd">
<svg version="1.1" id="Layer_1" xmlns="http://www.w3.org/2000/svg" xmlns:xlink="http://www.w3.org/1999/xlink" x="0px" y="0px"
	 width="16px" height="16px" viewBox="248 248 16 16" enable-background="new 248 248 16 16" xml:space="preserve">
<path fill="#0D6EFD" d="M256,248c-4.419,0-8,3.581-8,8c0,4.419,3.581,8,8,8c4.419,0,8-3.581,8-8C264,251.581,260.419,248,256,248z
	 M260.645,256.903c0,0.213-0.174,0.387-0.387,0.387h-2.968v2.968c0,0.213-0.174,0.387-0.387,0.387h-1.806
	c-0.213,0-0.387-0.174-0.387-0.387v-2.968h-2.968c-0.213,0-0.387-0.174-0.387-0.387v-1.806c0-0.213,0.174-0.387,0.387-0.387h2.968
	v-2.968c0-0.213,0.174-0.387,0.387-0.387h1.806c0.213,0,0.387,0.174,0.387,0.387v2.968h2.968c0.213,0,0.387,0.174,0.387,0.387
	V256.903z"/>
</svg>
