<?xml version="1.0" encoding="utf-8"?>
<!-- Generator: Adobe Illustrator 17.0.0, SVG Export Plug-In . SVG Version: 6.00 Build 0)  -->
<!DOCTYPE svg PUBLIC "-//W3C//DTD SVG 1.1//EN" "http://www.w3.org/Graphics/SVG/1.1/DTD/svg11.dtd">
<svg version="1.1" id="Layer_1" xmlns="http://www.w3.org/2000/svg" xmlns:xlink="http://www.w3.org/1999/xlink" x="0px" y="0px"
	 width="12px" height="11.731px" viewBox="0 0 12 11.731" enable-background="new 0 0 12 11.731" xml:space="preserve">
<path fill="#939598" d="M11.998,8.819c0,1.609-1.304,2.913-2.913,2.913H2.912c-1.609,0-2.913-1.304-2.913-2.913V2.913
	C-0.001,1.304,1.303,0,2.912,0h6.175C10.696,0,12,1.304,12,2.913L11.998,8.819L11.998,8.819z"/>
<path fill="none" stroke="#FFFFFF" stroke-miterlimit="10" d="M9.084,7.384c0,0.827-0.671,1.497-1.497,1.497H4.411
	c-0.827,0-1.497-0.671-1.497-1.497V4.348c0-0.827,0.671-1.497,1.497-1.497h3.175c0.827,0,1.497,0.671,1.497,1.497v3.036H9.084z"/>
</svg>
