<?xml version="1.0" encoding="utf-8"?>
<!-- Generator: Adobe Illustrator 17.0.0, SVG Export Plug-In . SVG Version: 6.00 Build 0)  -->
<!DOCTYPE svg PUBLIC "-//W3C//DTD SVG 1.1//EN" "http://www.w3.org/Graphics/SVG/1.1/DTD/svg11.dtd">
<svg version="1.1" id="Layer_1" xmlns="http://www.w3.org/2000/svg" xmlns:xlink="http://www.w3.org/1999/xlink" x="0px" y="0px"
	 width="12.031px" height="12px" viewBox="291.623 414.945 12.031 12" enable-background="new 291.623 414.945 12.031 12"
	 xml:space="preserve">
<path d="M303.35,420.161c0.212,0.208,0.322,0.499,0.302,0.796c0.022,0.286-0.09,0.566-0.302,0.76l-4.905,4.923
	c-0.408,0.408-1.068,0.408-1.476,0c-0.408-0.408-0.408-1.068,0-1.476l3.182-3.182h-7.486c-0.573,0.004-1.04-0.458-1.042-1.031
	c0-0.002,0-0.004,0-0.006c0.004-0.575,0.468-1.04,1.042-1.042h7.485l-3.181-3.175c-0.408-0.408-0.408-1.068,0-1.476
	c0.408-0.408,1.068-0.408,1.476,0l0,0L303.35,420.161z"/>
</svg>
