<?xml version="1.0" encoding="utf-8"?>
<!-- Generator: Adobe Illustrator 17.0.0, SVG Export Plug-In . SVG Version: 6.00 Build 0)  -->
<!DOCTYPE svg PUBLIC "-//W3C//DTD SVG 1.1//EN" "http://www.w3.org/Graphics/SVG/1.1/DTD/svg11.dtd">
<svg version="1.1" id="Layer_1" xmlns="http://www.w3.org/2000/svg" xmlns:xlink="http://www.w3.org/1999/xlink" x="0px" y="0px"
	 width="72px" height="72px" viewBox="92 92 72 72" enable-background="new 92 92 72 72" xml:space="preserve">
<g>
	<g>
		
			<linearGradient id="SVGID_1_" gradientUnits="userSpaceOnUse" x1="-168.3052" y1="547.092" x2="-168.3052" y2="546.8108" gradientTransform="matrix(256 0 0 -256 43214.1406 140147.5625)">
			<stop  offset="0" style="stop-color:#0091E6"/>
			<stop  offset="1" style="stop-color:#0079BF"/>
		</linearGradient>
		<path fill="url(#SVGID_1_)" d="M99.031,92h57.938c3.883,0,7.031,3.148,7.031,7.031v57.938c0,3.883-3.148,7.031-7.031,7.031H99.031
			c-3.883,0-7.031-3.148-7.031-7.031V99.031C92,95.148,95.148,92,99.031,92z"/>
		<path fill="#FFFFFF" d="M136.055,101.36h15.21c1.864,0,3.375,1.511,3.375,3.375v24.75c0,1.864-1.511,3.375-3.375,3.375h-15.21
			c-1.864,0-3.375-1.511-3.375-3.375v-24.75C132.68,102.871,134.191,101.36,136.055,101.36z"/>
		<path fill="#FFFFFF" d="M104.735,101.36h15.21c1.864,0,3.375,1.511,3.375,3.375v42.75c0,1.864-1.511,3.375-3.375,3.375h-15.21
			c-1.864,0-3.375-1.511-3.375-3.375v-42.75C101.36,102.871,102.871,101.36,104.735,101.36z"/>
	</g>
</g>
</svg>
