<svg width="45" height="45" viewBox="0 0 45 45" fill="none" xmlns="http://www.w3.org/2000/svg">
<g clip-path="url(#clip0_1455_394)">
<path d="M40.6055 0H4.39453C1.9675 0 0 1.9675 0 4.39453V40.6055C0 43.0325 1.9675 45 4.39453 45H40.6055C43.0325 45 45 43.0325 45 40.6055V4.39453C45 1.9675 43.0325 0 40.6055 0Z" fill="url(#paint0_linear_1455_394)"/>
<path d="M37.0404 5.8501H27.5342C26.3692 5.8501 25.4248 6.7945 25.4248 7.95947V23.4282C25.4248 24.5932 26.3692 25.5376 27.5342 25.5376H37.0404C38.2054 25.5376 39.1498 24.5932 39.1498 23.4282V7.95947C39.1498 6.7945 38.2054 5.8501 37.0404 5.8501Z" fill="white"/>
<path d="M17.4657 5.8501H7.95947C6.7945 5.8501 5.8501 6.7945 5.8501 7.95947V34.6782C5.8501 35.8432 6.7945 36.7876 7.95947 36.7876H17.4657C18.6307 36.7876 19.5751 35.8432 19.5751 34.6782V7.95947C19.5751 6.7945 18.6307 5.8501 17.4657 5.8501Z" fill="white"/>
</g>
<defs>
<linearGradient id="paint0_linear_1455_394" x1="22.5" y1="0" x2="22.5" y2="45" gradientUnits="userSpaceOnUse">
<stop stop-color="#0091E6"/>
<stop offset="1" stop-color="#0079BF"/>
</linearGradient>
<clipPath id="clip0_1455_394">
<rect width="45" height="45" fill="white"/>
</clipPath>
</defs>
</svg>
