<svg width="29" height="21" viewBox="0 0 29 21" fill="none" xmlns="http://www.w3.org/2000/svg">
<path d="M15.5368 21V15H19.68L14.501 9L9.32209 15H13.4652V21H8.28631V20.95C8.11229 20.96 7.94657 21 7.76841 21C5.7081 21 3.73218 20.2098 2.27532 18.8033C0.818455 17.3968 0 15.4891 0 13.5C0 9.652 3.01414 6.516 6.88178 6.086C7.22087 4.37459 8.16707 2.83074 9.55765 1.72C10.9482 0.609259 12.6962 0.00105603 14.501 0C16.3061 0.000975327 18.0544 0.609106 19.4453 1.71982C20.8362 2.83053 21.7828 4.37442 22.1224 6.086C25.99 6.516 29 9.652 29 13.5C29 15.4891 28.1815 17.3968 26.7247 18.8033C25.2678 20.2098 23.2919 21 21.2316 21C21.0576 21 20.8898 20.96 20.7137 20.95V21H15.5368Z" fill="#4F82EC"/>
</svg>
