<?xml version="1.0" encoding="utf-8"?>
<!-- Generator: Adobe Illustrator 17.0.0, SVG Export Plug-In . SVG Version: 6.00 Build 0)  -->
<!DOCTYPE svg PUBLIC "-//W3C//DTD SVG 1.1//EN" "http://www.w3.org/Graphics/SVG/1.1/DTD/svg11.dtd">
<svg version="1.1" id="magicoon-Filled" xmlns="http://www.w3.org/2000/svg" xmlns:xlink="http://www.w3.org/1999/xlink" x="0px"
	 y="0px" width="16px" height="14.4px" viewBox="4 4.8 16 14.4" enable-background="new 4 4.8 16 14.4" xml:space="preserve">
<title>image</title>
<g id="image-Filled">
	<path id="image-Filled-2" fill="#939598" d="M16,4.8H8c-2.208,0.003-3.997,1.792-4,4v6.4c0.003,2.208,1.792,3.997,4,4h8
		c2.208-0.003,3.997-1.792,4-4V8.8C19.997,6.592,18.208,4.803,16,4.8z M8,6.4h8c1.325,0,2.4,1.075,2.4,2.4v3.669L15.534,9.6
		c-0.627-0.625-1.641-0.625-2.267,0L9.6,13.269L9.134,12.8c-0.627-0.625-1.641-0.625-2.267,0L5.6,14.069V8.8
		C5.6,7.475,6.675,6.4,8,6.4z M7.6,9.6c0-0.663,0.537-1.2,1.2-1.2S10,8.937,10,9.6s-0.537,1.2-1.2,1.2S7.6,10.263,7.6,9.6z"/>
</g>
</svg>
