<?xml version="1.0" encoding="utf-8"?>
<!-- Generator: Adobe Illustrator 17.0.0, SVG Export Plug-In . SVG Version: 6.00 Build 0)  -->
<!DOCTYPE svg PUBLIC "-//W3C//DTD SVG 1.1//EN" "http://www.w3.org/Graphics/SVG/1.1/DTD/svg11.dtd">
<svg version="1.1" id="Layer_1" xmlns="http://www.w3.org/2000/svg" xmlns:xlink="http://www.w3.org/1999/xlink" x="0px" y="0px"
	 width="60px" height="32.258px" viewBox="19.5 8.371 60 32.258" enable-background="new 19.5 8.371 60 32.258"
	 xml:space="preserve">
<rect x="19.5" y="8.371" fill="#E6E7E8" width="60" height="32.258"/>
<path d="M28.712,24.5c0.558-1.095,1.408-2.015,2.457-2.657c1.048-0.642,2.254-0.982,3.483-0.982c1.229,0,2.435,0.34,3.483,0.982
	c1.048,0.642,1.898,1.562,2.457,2.657c-0.558,1.095-1.408,2.015-2.457,2.657c-1.048,0.642-2.254,0.982-3.483,0.982
	c-1.229,0-2.435-0.34-3.483-0.982C30.121,26.515,29.271,25.595,28.712,24.5z M34.652,26.924c0.643,0,1.26-0.255,1.714-0.71
	c0.455-0.455,0.71-1.071,0.71-1.714s-0.255-1.26-0.71-1.714c-0.455-0.455-1.071-0.71-1.714-0.71c-0.643,0-1.26,0.255-1.714,0.71
	c-0.455,0.455-0.71,1.071-0.71,1.714s0.255,1.26,0.71,1.714C33.392,26.669,34.009,26.924,34.652,26.924z M34.652,25.712
	c-0.321,0-0.63-0.128-0.857-0.355S33.44,24.821,33.44,24.5c0-0.321,0.128-0.63,0.355-0.857c0.227-0.227,0.536-0.355,0.857-0.355
	c0.321,0,0.63,0.128,0.857,0.355c0.227,0.227,0.355,0.536,0.355,0.857c0,0.321-0.128,0.63-0.355,0.857S34.973,25.712,34.652,25.712z
	"/>
<path fill="#373737" d="M47.524,27.131l2.539-7.309H51.3l-3.19,8.617h-0.882L47.524,27.131z M45.151,19.822l2.515,7.309l0.314,1.308
	h-0.882l-3.184-8.617H45.151z M53.484,22.036v6.404h-1.101v-6.404H53.484z M52.301,20.337c0-0.178,0.053-0.328,0.16-0.45
	c0.11-0.122,0.272-0.184,0.485-0.184c0.209,0,0.369,0.061,0.479,0.184c0.114,0.122,0.172,0.272,0.172,0.45
	c0,0.17-0.057,0.316-0.172,0.438c-0.11,0.118-0.27,0.178-0.479,0.178c-0.213,0-0.375-0.059-0.485-0.178
	C52.354,20.653,52.301,20.507,52.301,20.337z M57.9,28.558c-0.446,0-0.85-0.075-1.213-0.225c-0.359-0.154-0.669-0.369-0.929-0.645
	c-0.256-0.276-0.454-0.604-0.592-0.982c-0.138-0.379-0.207-0.793-0.207-1.243v-0.249c0-0.521,0.077-0.984,0.231-1.391
	c0.154-0.41,0.363-0.758,0.627-1.042c0.264-0.284,0.564-0.499,0.9-0.645c0.335-0.146,0.683-0.219,1.042-0.219
	c0.458,0,0.852,0.079,1.184,0.237c0.335,0.158,0.61,0.379,0.823,0.663c0.213,0.28,0.371,0.612,0.474,0.994
	c0.103,0.379,0.154,0.793,0.154,1.243v0.491h-4.782v-0.894h3.687v-0.083c-0.016-0.284-0.075-0.56-0.178-0.829
	c-0.099-0.268-0.256-0.489-0.474-0.663c-0.217-0.174-0.513-0.26-0.888-0.26c-0.249,0-0.477,0.053-0.687,0.16
	c-0.209,0.103-0.389,0.256-0.539,0.462c-0.15,0.205-0.266,0.456-0.349,0.752c-0.083,0.296-0.124,0.637-0.124,1.024v0.249
	c0,0.304,0.041,0.59,0.124,0.858c0.087,0.264,0.211,0.497,0.373,0.698c0.166,0.201,0.365,0.359,0.598,0.474
	c0.237,0.114,0.505,0.172,0.805,0.172c0.387,0,0.714-0.079,0.982-0.237s0.503-0.369,0.704-0.633l0.663,0.527
	c-0.138,0.209-0.314,0.408-0.527,0.598c-0.213,0.189-0.475,0.343-0.787,0.462C58.687,28.499,58.322,28.558,57.9,28.558z
	 M63.291,27.303l1.645-5.268h0.722l-0.142,1.048l-1.675,5.356h-0.704L63.291,27.303z M62.185,22.036l1.403,5.327l0.101,1.077h-0.74
	l-1.858-6.404H62.185z M67.233,27.321l1.338-5.285h1.089l-1.858,6.404h-0.734L67.233,27.321z M65.819,22.036l1.61,5.179l0.184,1.225
	h-0.698l-1.722-5.368l-0.142-1.036H65.819z"/>
</svg>
